<?xml version="1.0" encoding="UTF-8"?>
<!DOCTYPE svg PUBLIC "-//W3C//DTD SVG 1.1//EN" "http://www.w3.org/Graphics/SVG/1.1/DTD/svg11.dtd">
<!-- Creator: CorelDRAW 2021.5 -->
<svg xmlns="http://www.w3.org/2000/svg" xml:space="preserve" width="520px" height="80px" version="1.1" style="shape-rendering:geometricPrecision; text-rendering:geometricPrecision; image-rendering:optimizeQuality; fill-rule:evenodd; clip-rule:evenodd"
viewBox="0 0 520 80"
 xmlns:xlink="http://www.w3.org/1999/xlink"
 xmlns:xodm="http://www.corel.com/coreldraw/odm/2003">
 <defs>
  <style type="text/css">
   <![CDATA[
    .fil0 {fill:#FEFEFE;fill-rule:nonzero}
   ]]>
  </style>
 </defs>
 <g id="Layer_x0020_1">
  <metadata id="CorelCorpID_0Corel-Layer"/>
  <path class="fil0" d="M84.32 22.26l0 -12.59 10.45 0 0 12.59 -2.09 0 0 -10.73 -6.27 0 0 10.73 -2.09 0zm16.83 4.75l0 -17.34 1.94 0 0 2.38c0.43,-0.84 1.03,-1.49 1.8,-1.94 0.76,-0.45 1.65,-0.67 2.66,-0.67 1.59,0 2.85,0.51 3.8,1.55 0.95,1.04 1.43,2.58 1.43,4.62l0 0.47c0,1.43 -0.22,2.62 -0.65,3.56 -0.44,0.96 -1.05,1.67 -1.83,2.14 -0.79,0.48 -1.7,0.71 -2.75,0.71 -1.07,0 -1.97,-0.23 -2.69,-0.71 -0.72,-0.47 -1.26,-1.07 -1.63,-1.78l0 7.01 -2.08 0zm5.93 -6.37c1.03,0 1.89,-0.39 2.58,-1.16 0.68,-0.77 1.03,-1.91 1.03,-3.4l0 -0.47c0,-1.38 -0.35,-2.44 -1.03,-3.2 -0.69,-0.75 -1.55,-1.12 -2.58,-1.12 -0.76,0 -1.43,0.16 -2.01,0.47 -0.57,0.32 -1.02,0.75 -1.35,1.3 -0.32,0.55 -0.49,1.16 -0.49,1.84l0 1.9c0,0.75 0.17,1.42 0.49,2 0.33,0.58 0.78,1.03 1.35,1.35 0.58,0.33 1.25,0.49 2.01,0.49zm16.47 1.85c-1.06,0 -2.06,-0.23 -2.99,-0.7 -0.92,-0.47 -1.66,-1.17 -2.22,-2.12 -0.57,-0.95 -0.85,-2.14 -0.85,-3.59l0 -0.47c0,-1.36 0.28,-2.5 0.85,-3.42 0.56,-0.92 1.3,-1.6 2.22,-2.07 0.93,-0.45 1.93,-0.68 2.99,-0.68 1.07,0 2.07,0.23 2.99,0.68 0.92,0.47 1.66,1.15 2.22,2.07 0.56,0.92 0.84,2.06 0.84,3.42l0 0.47c0,1.45 -0.28,2.64 -0.84,3.59 -0.56,0.95 -1.3,1.65 -2.22,2.12 -0.92,0.47 -1.92,0.7 -2.99,0.7zm0 -1.89c0.65,0 1.27,-0.15 1.86,-0.45 0.59,-0.29 1.08,-0.77 1.47,-1.43 0.39,-0.67 0.58,-1.54 0.58,-2.64l0 -0.47c0,-1.01 -0.19,-1.83 -0.58,-2.46 -0.39,-0.62 -0.88,-1.08 -1.47,-1.37 -0.59,-0.3 -1.21,-0.44 -1.86,-0.44 -0.64,0 -1.25,0.14 -1.85,0.44 -0.6,0.29 -1.1,0.75 -1.49,1.37 -0.38,0.63 -0.58,1.45 -0.58,2.46l0 0.47c0,1.1 0.2,1.97 0.58,2.64 0.39,0.66 0.89,1.14 1.49,1.43 0.6,0.3 1.21,0.45 1.85,0.45zm11.6 1.66l0 -12.59 2.09 0 0 9.5 6.5 -9.5 2.09 0 0 12.59 -2.09 0 0 -9.5 -6.5 9.5 -2.09 0zm21.33 0.23c-1.05,0 -1.94,-0.15 -2.7,-0.45 -0.76,-0.3 -1.36,-0.73 -1.78,-1.3 -0.44,-0.58 -0.68,-1.25 -0.74,-2.04l2.09 0c0.08,0.41 0.25,0.75 0.52,1.04 0.27,0.29 0.63,0.5 1.07,0.64 0.44,0.14 0.96,0.22 1.54,0.22 1.09,0 1.89,-0.19 2.38,-0.56 0.5,-0.38 0.75,-0.82 0.75,-1.34 0,-0.62 -0.2,-1.11 -0.61,-1.46 -0.41,-0.36 -1.13,-0.54 -2.14,-0.54l-2.16 0 0 -1.71 2.02 0c0.87,0 1.49,-0.16 1.86,-0.5 0.37,-0.33 0.56,-0.8 0.56,-1.4 0,-0.47 -0.22,-0.89 -0.66,-1.23 -0.45,-0.35 -1.11,-0.52 -2,-0.52 -0.97,0 -1.67,0.15 -2.1,0.45 -0.43,0.32 -0.7,0.76 -0.79,1.33l-2.09 0c0.06,-0.72 0.3,-1.35 0.71,-1.9 0.41,-0.56 0.98,-0.99 1.71,-1.31 0.73,-0.32 1.58,-0.47 2.56,-0.47 1.62,0 2.81,0.34 3.59,1.02 0.77,0.68 1.16,1.55 1.16,2.63 0,0.6 -0.15,1.13 -0.45,1.58 -0.3,0.45 -0.78,0.8 -1.45,1.06 0.89,0.24 1.5,0.62 1.85,1.14 0.35,0.52 0.52,1.13 0.52,1.83 0,0.68 -0.19,1.31 -0.59,1.88 -0.39,0.58 -0.98,1.04 -1.75,1.39 -0.76,0.35 -1.73,0.52 -2.88,0.52zm10.77 -0.23l0 -12.59 5.46 0c1.04,0 1.9,0.15 2.57,0.44 0.66,0.3 1.15,0.7 1.47,1.21 0.31,0.52 0.47,1.12 0.47,1.8 0,0.55 -0.18,1.08 -0.54,1.57 -0.35,0.5 -0.8,0.85 -1.36,1.04 0.78,0.19 1.36,0.55 1.77,1.08 0.4,0.53 0.6,1.15 0.6,1.86 0,1.09 -0.36,1.97 -1.08,2.61 -0.73,0.65 -1.87,0.98 -3.42,0.98l-5.94 0zm2.09 -1.86l3.85 0c0.88,0 1.51,-0.15 1.87,-0.47 0.36,-0.32 0.55,-0.77 0.55,-1.35 0,-0.6 -0.19,-1.07 -0.55,-1.39 -0.36,-0.33 -0.99,-0.49 -1.87,-0.49l-3.85 0 0 3.7zm0 -5.41l3.37 0c0.9,0 1.53,-0.16 1.89,-0.47 0.35,-0.32 0.53,-0.75 0.53,-1.31 0,-0.52 -0.18,-0.93 -0.53,-1.23 -0.36,-0.3 -0.99,-0.45 -1.89,-0.45l-3.37 0 0 3.46zm19.13 7.5c-1.07,0 -2.06,-0.23 -2.98,-0.7 -0.93,-0.47 -1.67,-1.17 -2.24,-2.12 -0.56,-0.95 -0.84,-2.14 -0.84,-3.59l0 -0.47c0,-1.36 0.28,-2.5 0.84,-3.42 0.57,-0.92 1.31,-1.6 2.24,-2.07 0.92,-0.45 1.91,-0.68 2.98,-0.68 1.07,0 2.07,0.23 2.99,0.68 0.91,0.47 1.65,1.15 2.22,2.07 0.56,0.92 0.84,2.06 0.84,3.42l0 0.47c0,1.45 -0.28,2.64 -0.84,3.59 -0.57,0.95 -1.31,1.65 -2.22,2.12 -0.92,0.47 -1.92,0.7 -2.99,0.7zm0 -1.89c0.64,0 1.27,-0.15 1.86,-0.45 0.59,-0.29 1.08,-0.77 1.47,-1.43 0.39,-0.67 0.58,-1.54 0.58,-2.64l0 -0.47c0,-1.01 -0.19,-1.83 -0.58,-2.46 -0.39,-0.62 -0.88,-1.08 -1.47,-1.37 -0.59,-0.3 -1.22,-0.44 -1.86,-0.44 -0.64,0 -1.26,0.14 -1.86,0.44 -0.6,0.29 -1.09,0.75 -1.48,1.37 -0.39,0.63 -0.58,1.45 -0.58,2.46l0 0.47c0,1.1 0.19,1.97 0.58,2.64 0.39,0.66 0.88,1.14 1.48,1.43 0.6,0.3 1.22,0.45 1.86,0.45zm9.93 4.62l0 -4.82 1.55 0c0.23,-0.31 0.44,-0.85 0.61,-1.6 0.18,-0.75 0.31,-1.63 0.42,-2.64 0.1,-1.02 0.15,-2.07 0.15,-3.16l0 -3.33 8.79 0 0 10.73 1.78 0 0 4.82 -2 0 0 -2.96 -9.3 0 0 2.96 -2 0zm3.68 -4.82l5.75 0 0 -8.87 -4.65 0 0 1.94c0,1.33 -0.1,2.62 -0.28,3.86 -0.18,1.24 -0.45,2.27 -0.82,3.07zm19.56 2.09c-1.08,0 -2.05,-0.23 -2.91,-0.7 -0.87,-0.47 -1.55,-1.17 -2.05,-2.12 -0.49,-0.95 -0.74,-2.14 -0.74,-3.59l0 -0.47c0,-1.36 0.27,-2.5 0.81,-3.42 0.53,-0.92 1.24,-1.6 2.11,-2.07 0.87,-0.45 1.79,-0.68 2.78,-0.68 0.99,0 1.85,0.17 2.57,0.53 0.72,0.36 1.3,0.84 1.74,1.45 0.45,0.61 0.75,1.29 0.91,2.05l-2.14 0c-0.25,-0.6 -0.6,-1.1 -1.06,-1.52 -0.45,-0.41 -1.12,-0.61 -2.02,-0.61 -0.62,0 -1.2,0.14 -1.74,0.44 -0.54,0.29 -0.98,0.75 -1.32,1.37 -0.34,0.63 -0.51,1.45 -0.51,2.46l0 0.47c0,1.08 0.17,1.95 0.51,2.62 0.34,0.66 0.78,1.14 1.32,1.44 0.54,0.31 1.12,0.46 1.74,0.46 0.77,0 1.42,-0.2 1.95,-0.57 0.53,-0.39 0.91,-0.91 1.13,-1.57l2.14 0c-0.19,0.82 -0.53,1.54 -1.02,2.15 -0.5,0.61 -1.09,1.07 -1.81,1.4 -0.71,0.32 -1.51,0.48 -2.39,0.48zm13.52 -0.23l0 -10.73 -4.3 0 0 -1.86 10.68 0 0 1.86 -4.3 0 0 10.73 -2.08 0zm11.34 0l0 -12.59 5.45 0c1.05,0 1.9,0.15 2.57,0.44 0.67,0.3 1.16,0.7 1.47,1.21 0.32,0.52 0.48,1.12 0.48,1.8 0,0.55 -0.18,1.08 -0.54,1.57 -0.35,0.5 -0.81,0.85 -1.36,1.04 0.78,0.19 1.36,0.55 1.77,1.08 0.4,0.53 0.6,1.15 0.6,1.86 0,1.09 -0.36,1.97 -1.09,2.61 -0.73,0.65 -1.87,0.98 -3.42,0.98l-5.93 0zm2.08 -1.86l3.85 0c0.89,0 1.51,-0.15 1.88,-0.47 0.36,-0.32 0.54,-0.77 0.54,-1.35 0,-0.6 -0.18,-1.07 -0.54,-1.39 -0.37,-0.33 -0.99,-0.49 -1.88,-0.49l-3.85 0 0 3.7zm0 -5.41l3.37 0c0.91,0 1.54,-0.16 1.89,-0.47 0.36,-0.32 0.54,-0.75 0.54,-1.31 0,-0.52 -0.18,-0.93 -0.54,-1.23 -0.35,-0.3 -0.98,-0.45 -1.89,-0.45l-3.37 0 0 3.46zm19.13 7.5c-1.06,0 -2.05,-0.23 -2.98,-0.68 -0.93,-0.46 -1.67,-1.17 -2.23,-2.12 -0.56,-0.95 -0.84,-2.15 -0.84,-3.61l0 -0.47c0,-1.39 0.26,-2.55 0.81,-3.45 0.53,-0.92 1.24,-1.6 2.13,-2.05 0.89,-0.45 1.85,-0.67 2.87,-0.67 1.85,0 3.29,0.5 4.3,1.51 1.01,1.02 1.52,2.45 1.52,4.3l0 1.33 -9.54 0c0,0.98 0.2,1.77 0.6,2.35 0.41,0.59 0.91,1.01 1.52,1.27 0.61,0.26 1.22,0.4 1.84,0.4 0.95,0 1.69,-0.16 2.2,-0.48 0.51,-0.32 0.88,-0.75 1.1,-1.31l2.04 0c-0.25,1.21 -0.87,2.12 -1.86,2.75 -0.99,0.62 -2.15,0.93 -3.48,0.93zm-0.12 -11.15c-0.65,0 -1.27,0.12 -1.85,0.36 -0.59,0.25 -1.07,0.64 -1.43,1.15 -0.38,0.53 -0.56,1.2 -0.56,2.03l7.57 0c-0.02,-0.88 -0.19,-1.57 -0.53,-2.08 -0.35,-0.52 -0.79,-0.89 -1.35,-1.12 -0.55,-0.23 -1.17,-0.34 -1.85,-0.34zm11.25 10.92l0 -12.59 2.09 0 0 5.25 6.5 0 0 -5.25 2.09 0 0 12.59 -2.09 0 0 -5.49 -6.5 0 0 5.49 -2.09 0zm17.05 0l0 -12.59 2.09 0 0 5.25 6.51 0 0 -5.25 2.09 0 0 12.59 -2.09 0 0 -5.49 -6.51 0 0 5.49 -2.09 0zm20.65 0.23c-0.92,0 -1.69,-0.16 -2.34,-0.51 -0.64,-0.34 -1.12,-0.81 -1.46,-1.4 -0.33,-0.59 -0.5,-1.26 -0.5,-2 0,-1.25 0.37,-2.16 1.11,-2.71 0.74,-0.55 1.79,-0.83 3.17,-0.83l4.08 0 0 -0.86c0,-1.07 -0.24,-1.81 -0.72,-2.23 -0.49,-0.41 -1.21,-0.61 -2.18,-0.61 -0.9,0 -1.56,0.17 -1.96,0.51 -0.42,0.34 -0.65,0.72 -0.69,1.15l-2.09 0c0.04,-0.68 0.28,-1.29 0.68,-1.82 0.42,-0.53 0.98,-0.95 1.69,-1.27 0.71,-0.32 1.54,-0.47 2.49,-0.47 1,0 1.86,0.15 2.59,0.46 0.73,0.31 1.29,0.79 1.69,1.45 0.39,0.65 0.59,1.52 0.59,2.6l0 5.1c0,0.67 0.01,1.25 0.01,1.75 0.01,0.5 0.04,0.98 0.11,1.46l-1.83 0c-0.04,-0.37 -0.08,-0.71 -0.09,-1.04 -0.02,-0.32 -0.03,-0.69 -0.03,-1.1 -0.33,0.66 -0.87,1.23 -1.61,1.69 -0.75,0.45 -1.65,0.68 -2.71,0.68zm0.45 -1.89c0.67,0 1.27,-0.13 1.82,-0.36 0.55,-0.24 0.98,-0.59 1.3,-1.05 0.33,-0.46 0.49,-1.02 0.49,-1.68l0 -0.86 -3.73 0c-0.77,0 -1.38,0.16 -1.82,0.47 -0.45,0.31 -0.67,0.79 -0.67,1.46 0,0.58 0.21,1.06 0.63,1.45 0.42,0.37 1.08,0.57 1.98,0.57zm11.01 1.66l3.42 -4.99c-1.05,-0.24 -1.8,-0.67 -2.26,-1.29 -0.46,-0.63 -0.69,-1.43 -0.69,-2.41 0,-0.82 0.17,-1.53 0.5,-2.1 0.34,-0.58 0.85,-1.02 1.54,-1.33 0.7,-0.31 1.6,-0.47 2.71,-0.47l5.46 0 0 12.59 -2.09 0 0 -4.8 -3.2 0 -3.07 4.8 -2.32 0zm2.56 -8.69c0,0.66 0.2,1.17 0.58,1.52 0.39,0.35 1.04,0.52 1.96,0.52l3.49 0 0 -4.08 -3.49 0c-0.92,0 -1.57,0.17 -1.96,0.52 -0.38,0.35 -0.58,0.85 -0.58,1.52zm26.96 8.69l0 -12.59 2.23 0 4.49 7.84 4.49 -7.84 2.09 0 0 12.59 -2.09 0 0 -9.14 -3.73 6.41 -1.66 0 -3.73 -6.41 0 9.14 -2.09 0zm23.26 0.23c-0.92,0 -1.7,-0.16 -2.34,-0.51 -0.64,-0.34 -1.13,-0.81 -1.46,-1.4 -0.33,-0.59 -0.5,-1.26 -0.5,-2 0,-1.25 0.37,-2.16 1.11,-2.71 0.73,-0.55 1.79,-0.83 3.16,-0.83l4.09 0 0 -0.86c0,-1.07 -0.24,-1.81 -0.73,-2.23 -0.48,-0.41 -1.2,-0.61 -2.17,-0.61 -0.9,0 -1.55,0.17 -1.97,0.51 -0.41,0.34 -0.64,0.72 -0.69,1.15l-2.08 0c0.04,-0.68 0.27,-1.29 0.68,-1.82 0.41,-0.53 0.98,-0.95 1.69,-1.27 0.71,-0.32 1.54,-0.47 2.49,-0.47 1,0 1.86,0.15 2.59,0.46 0.73,0.31 1.29,0.79 1.68,1.45 0.4,0.65 0.6,1.52 0.6,2.6l0 5.1c0,0.67 0,1.25 0.01,1.75 0.01,0.5 0.05,0.98 0.11,1.46l-1.83 0c-0.05,-0.37 -0.08,-0.71 -0.1,-1.04 -0.01,-0.32 -0.02,-0.69 -0.02,-1.1 -0.33,0.66 -0.87,1.23 -1.62,1.69 -0.74,0.45 -1.64,0.68 -2.7,0.68zm0.45 -1.89c0.67,0 1.27,-0.13 1.82,-0.36 0.54,-0.24 0.98,-0.59 1.3,-1.05 0.33,-0.46 0.49,-1.02 0.49,-1.68l0 -0.86 -3.73 0c-0.78,0 -1.39,0.16 -1.83,0.47 -0.44,0.31 -0.66,0.79 -0.66,1.46 0,0.58 0.21,1.06 0.63,1.45 0.42,0.37 1.08,0.57 1.98,0.57zm16.82 1.89c-1.07,0 -2.04,-0.23 -2.91,-0.7 -0.86,-0.47 -1.54,-1.17 -2.04,-2.12 -0.5,-0.95 -0.74,-2.14 -0.74,-3.59l0 -0.47c0,-1.36 0.27,-2.5 0.8,-3.42 0.54,-0.92 1.24,-1.6 2.12,-2.07 0.87,-0.45 1.79,-0.68 2.77,-0.68 1,0 1.86,0.17 2.58,0.53 0.72,0.36 1.3,0.84 1.74,1.45 0.45,0.61 0.75,1.29 0.91,2.05l-2.14 0c-0.25,-0.6 -0.61,-1.1 -1.06,-1.52 -0.45,-0.41 -1.12,-0.61 -2.03,-0.61 -0.62,0 -1.19,0.14 -1.73,0.44 -0.54,0.29 -0.98,0.75 -1.32,1.37 -0.34,0.63 -0.51,1.45 -0.51,2.46l0 0.47c0,1.08 0.17,1.95 0.51,2.62 0.34,0.66 0.78,1.14 1.32,1.44 0.54,0.31 1.11,0.46 1.73,0.46 0.78,0 1.43,-0.2 1.96,-0.57 0.53,-0.39 0.91,-0.91 1.13,-1.57l2.14 0c-0.19,0.82 -0.54,1.54 -1.02,2.15 -0.5,0.61 -1.1,1.07 -1.81,1.4 -0.71,0.32 -1.51,0.48 -2.4,0.48zm13.52 -0.23l0 -10.73 -4.29 0 0 -1.86 10.68 0 0 1.86 -4.3 0 0 10.73 -2.09 0zm16.33 0.23c-1.06,0 -2.05,-0.23 -2.98,-0.68 -0.93,-0.46 -1.67,-1.17 -2.23,-2.12 -0.57,-0.95 -0.84,-2.15 -0.84,-3.61l0 -0.47c0,-1.39 0.26,-2.55 0.8,-3.45 0.54,-0.92 1.25,-1.6 2.14,-2.05 0.89,-0.45 1.84,-0.67 2.87,-0.67 1.86,0 3.29,0.5 4.3,1.51 1.01,1.02 1.52,2.45 1.52,4.3l0 1.33 -9.54 0c0,0.98 0.2,1.77 0.6,2.35 0.4,0.59 0.91,1.01 1.52,1.27 0.61,0.26 1.22,0.4 1.84,0.4 0.95,0 1.68,-0.16 2.2,-0.48 0.51,-0.32 0.88,-0.75 1.1,-1.31l2.04 0c-0.25,1.21 -0.87,2.12 -1.86,2.75 -0.99,0.62 -2.15,0.93 -3.48,0.93zm-0.12 -11.15c-0.65,0 -1.27,0.12 -1.85,0.36 -0.58,0.25 -1.07,0.64 -1.44,1.15 -0.37,0.53 -0.55,1.2 -0.55,2.03l7.57 0c-0.02,-0.88 -0.19,-1.57 -0.54,-2.08 -0.34,-0.52 -0.78,-0.89 -1.34,-1.12 -0.55,-0.23 -1.17,-0.34 -1.85,-0.34zm11.24 15.67l0 -17.34 1.95 0 0 2.38c0.43,-0.84 1.03,-1.49 1.8,-1.94 0.76,-0.45 1.65,-0.67 2.67,-0.67 1.58,0 2.84,0.51 3.79,1.55 0.95,1.04 1.43,2.58 1.43,4.62l0 0.47c0,1.43 -0.22,2.62 -0.65,3.56 -0.44,0.96 -1.05,1.67 -1.83,2.14 -0.79,0.48 -1.7,0.71 -2.74,0.71 -1.08,0 -1.98,-0.23 -2.7,-0.71 -0.72,-0.47 -1.26,-1.07 -1.63,-1.78l0 7.01 -2.09 0zm5.94 -6.37c1.03,0 1.89,-0.39 2.58,-1.16 0.69,-0.77 1.03,-1.91 1.03,-3.4l0 -0.47c0,-1.38 -0.34,-2.44 -1.03,-3.2 -0.69,-0.75 -1.55,-1.12 -2.58,-1.12 -0.76,0 -1.43,0.16 -2.01,0.47 -0.57,0.32 -1.03,0.75 -1.35,1.3 -0.32,0.55 -0.49,1.16 -0.49,1.84l0 1.9c0,0.75 0.17,1.42 0.49,2 0.32,0.58 0.78,1.03 1.35,1.35 0.58,0.33 1.25,0.49 2.01,0.49zm16.11 1.85c-1.07,0 -2.05,-0.23 -2.91,-0.7 -0.86,-0.47 -1.54,-1.17 -2.04,-2.12 -0.5,-0.95 -0.75,-2.14 -0.75,-3.59l0 -0.47c0,-1.36 0.27,-2.5 0.81,-3.42 0.54,-0.92 1.24,-1.6 2.11,-2.07 0.88,-0.45 1.8,-0.68 2.78,-0.68 1,0 1.86,0.17 2.58,0.53 0.72,0.36 1.3,0.84 1.74,1.45 0.45,0.61 0.74,1.29 0.9,2.05l-2.13 0c-0.26,-0.6 -0.61,-1.1 -1.06,-1.52 -0.45,-0.41 -1.13,-0.61 -2.03,-0.61 -0.62,0 -1.19,0.14 -1.73,0.44 -0.54,0.29 -0.98,0.75 -1.32,1.37 -0.34,0.63 -0.51,1.45 -0.51,2.46l0 0.47c0,1.08 0.17,1.95 0.51,2.62 0.34,0.66 0.78,1.14 1.32,1.44 0.54,0.31 1.11,0.46 1.73,0.46 0.78,0 1.43,-0.2 1.96,-0.57 0.53,-0.39 0.91,-0.91 1.13,-1.57l2.13 0c-0.18,0.82 -0.53,1.54 -1.02,2.15 -0.49,0.61 -1.09,1.07 -1.8,1.4 -0.72,0.32 -1.51,0.48 -2.4,0.48zm10.65 -0.23l0 -12.59 2.09 0 0 5.27 1.66 0 4.7 -5.27 2.47 0 -5.46 6.03 5.7 6.56 -2.66 0 -4.75 -5.51 -1.66 0 0 5.51 -2.09 0zm19.58 0.23c-0.92,0 -1.7,-0.16 -2.34,-0.51 -0.64,-0.34 -1.13,-0.81 -1.46,-1.4 -0.33,-0.59 -0.5,-1.26 -0.5,-2 0,-1.25 0.37,-2.16 1.11,-2.71 0.73,-0.55 1.79,-0.83 3.17,-0.83l4.08 0 0 -0.86c0,-1.07 -0.24,-1.81 -0.73,-2.23 -0.48,-0.41 -1.2,-0.61 -2.17,-0.61 -0.9,0 -1.56,0.17 -1.97,0.51 -0.41,0.34 -0.64,0.72 -0.69,1.15l-2.08 0c0.04,-0.68 0.27,-1.29 0.68,-1.82 0.41,-0.53 0.97,-0.95 1.68,-1.27 0.72,-0.32 1.55,-0.47 2.5,-0.47 1,0 1.86,0.15 2.59,0.46 0.72,0.31 1.29,0.79 1.68,1.45 0.4,0.65 0.6,1.52 0.6,2.6l0 5.1c0,0.67 0,1.25 0.01,1.75 0.01,0.5 0.04,0.98 0.11,1.46l-1.83 0c-0.05,-0.37 -0.08,-0.71 -0.1,-1.04 -0.01,-0.32 -0.02,-0.69 -0.02,-1.1 -0.33,0.66 -0.87,1.23 -1.62,1.69 -0.74,0.45 -1.64,0.68 -2.7,0.68zm0.45 -1.89c0.66,0 1.27,-0.13 1.81,-0.36 0.55,-0.24 0.99,-0.59 1.31,-1.05 0.33,-0.46 0.49,-1.02 0.49,-1.68l0 -0.86 -3.73 0c-0.77,0 -1.38,0.16 -1.83,0.47 -0.44,0.31 -0.66,0.79 -0.66,1.46 0,0.58 0.21,1.06 0.63,1.45 0.41,0.37 1.08,0.57 1.98,0.57zm11 1.66l3.43 -4.99c-1.05,-0.24 -1.8,-0.67 -2.26,-1.29 -0.46,-0.63 -0.69,-1.43 -0.69,-2.41 0,-0.82 0.17,-1.53 0.5,-2.1 0.33,-0.58 0.85,-1.02 1.54,-1.33 0.7,-0.31 1.6,-0.47 2.71,-0.47l5.46 0 0 12.59 -2.09 0 0 -4.8 -3.21 0 -3.06 4.8 -2.33 0zm2.57 -8.69c0,0.66 0.19,1.17 0.58,1.52 0.39,0.35 1.04,0.52 1.96,0.52l3.49 0 0 -4.08 -3.49 0c-0.92,0 -1.57,0.17 -1.96,0.52 -0.39,0.35 -0.58,0.85 -0.58,1.52zm-421.45 8.69l0 -13.04 11.35 0 0 13.49 -2.99 0 0 -10.73 -5.37 0 0 10.73 -2.99 0 0 -0.45zm0.9 -12.14l0 11.69 1.19 0 0 -10.73 7.17 0 0 10.73 1.19 0 0 -11.69 -9.55 0zm15.93 16.89l0 -17.79 2.84 0 0 1.4c0.33,-0.35 0.7,-0.65 1.12,-0.89 0.42,-0.25 0.88,-0.44 1.36,-0.56 0.48,-0.12 0.99,-0.18 1.53,-0.18 0.85,0 1.62,0.14 2.31,0.42 0.7,0.29 1.31,0.71 1.82,1.28 0.52,0.57 0.91,1.27 1.17,2.1 0.25,0.82 0.38,1.76 0.38,2.82l0 0.47c0,0.74 -0.06,1.42 -0.17,2.04 -0.12,0.63 -0.29,1.2 -0.53,1.71 -0.23,0.52 -0.52,0.97 -0.85,1.35 -0.33,0.39 -0.72,0.72 -1.15,0.99 -0.43,0.26 -0.9,0.45 -1.39,0.58 -0.5,0.13 -1.03,0.19 -1.59,0.19 -0.57,0 -1.1,-0.06 -1.59,-0.19 -0.49,-0.13 -0.94,-0.33 -1.34,-0.59 -0.35,-0.23 -0.67,-0.49 -0.94,-0.77l0 6.07 -2.98 0 0 -0.45zm0.9 -16.89l0 16.44 1.18 0 0 -8.4 0.85 1.64c0.17,0.32 0.37,0.61 0.62,0.88 0.24,0.27 0.53,0.51 0.86,0.73 0.32,0.21 0.68,0.36 1.08,0.47 0.41,0.11 0.87,0.16 1.36,0.16 0.49,0 0.95,-0.05 1.36,-0.16 0.41,-0.11 0.8,-0.27 1.15,-0.48 0.35,-0.21 0.66,-0.48 0.94,-0.8 0.28,-0.32 0.52,-0.71 0.72,-1.14 0.2,-0.44 0.35,-0.94 0.45,-1.5 0.11,-0.56 0.16,-1.19 0.16,-1.88l0 -0.47c0,-0.98 -0.11,-1.83 -0.34,-2.55 -0.21,-0.71 -0.54,-1.3 -0.97,-1.76 -0.43,-0.47 -0.93,-0.83 -1.5,-1.06 -0.57,-0.23 -1.23,-0.35 -1.97,-0.35 -0.46,0 -0.9,0.05 -1.31,0.15 -0.41,0.1 -0.78,0.26 -1.13,0.46 -0.34,0.2 -0.65,0.45 -0.92,0.74 -0.27,0.29 -0.5,0.63 -0.7,1.01l-0.85 1.69 0 -3.82 -1.04 0zm5.48 10.07c0.89,0 1.64,-0.34 2.24,-1.01 0.3,-0.34 0.53,-0.76 0.68,-1.26 0.16,-0.52 0.24,-1.13 0.24,-1.84l0 -0.47c0,-0.64 -0.08,-1.21 -0.24,-1.69 -0.15,-0.47 -0.38,-0.88 -0.67,-1.2 -0.3,-0.33 -0.64,-0.58 -1.01,-0.74 -0.37,-0.16 -0.79,-0.24 -1.24,-0.24 -0.34,0 -0.67,0.03 -0.97,0.1 -0.29,0.07 -0.57,0.18 -0.82,0.32 -0.25,0.13 -0.48,0.3 -0.67,0.49 -0.2,0.18 -0.37,0.4 -0.51,0.64 -0.14,0.23 -0.25,0.49 -0.32,0.75 -0.07,0.27 -0.11,0.56 -0.11,0.86l0 1.9c0,0.34 0.04,0.67 0.11,0.96 0.07,0.29 0.18,0.57 0.32,0.82 0.15,0.25 0.32,0.48 0.51,0.68 0.2,0.19 0.42,0.36 0.67,0.5 0.26,0.14 0.53,0.25 0.83,0.32 0.29,0.07 0.61,0.11 0.96,0.11zm2.91 -0.41c-0.78,0.87 -1.75,1.31 -2.91,1.31 -0.41,0 -0.8,-0.05 -1.18,-0.13 -0.37,-0.1 -0.72,-0.23 -1.05,-0.41 -0.32,-0.18 -0.61,-0.4 -0.86,-0.66 -0.26,-0.25 -0.48,-0.55 -0.66,-0.87 -0.18,-0.32 -0.32,-0.67 -0.41,-1.05 -0.09,-0.37 -0.14,-0.76 -0.14,-1.17l0 -1.9c0,-0.38 0.05,-0.75 0.14,-1.09 0.09,-0.34 0.23,-0.67 0.42,-0.98 0.18,-0.31 0.4,-0.59 0.66,-0.83 0.25,-0.24 0.54,-0.45 0.86,-0.63 0.32,-0.18 0.68,-0.31 1.05,-0.4 0.37,-0.09 0.76,-0.13 1.17,-0.13 0.57,0 1.11,0.11 1.59,0.32 0.49,0.21 0.93,0.53 1.32,0.95 0.39,0.43 0.68,0.94 0.87,1.53 0.19,0.58 0.28,1.23 0.28,1.97l0 0.47c0,0.79 -0.09,1.49 -0.28,2.1 -0.19,0.63 -0.48,1.16 -0.87,1.6zm13.56 3.16c-0.57,0 -1.11,-0.06 -1.64,-0.18 -0.53,-0.13 -1.05,-0.32 -1.55,-0.57 -0.5,-0.25 -0.96,-0.57 -1.36,-0.96 -0.4,-0.38 -0.75,-0.83 -1.05,-1.33 -0.3,-0.52 -0.53,-1.1 -0.68,-1.74 -0.15,-0.63 -0.23,-1.32 -0.23,-2.08l0 -0.47c0,-0.71 0.08,-1.38 0.23,-1.98 0.15,-0.62 0.38,-1.17 0.68,-1.67 0.3,-0.5 0.66,-0.93 1.05,-1.3 0.41,-0.37 0.86,-0.69 1.36,-0.94 0.5,-0.24 1.02,-0.43 1.55,-0.55 0.53,-0.12 1.08,-0.18 1.64,-0.18 0.57,0 1.12,0.06 1.65,0.18 0.54,0.12 1.05,0.31 1.54,0.55 0.5,0.25 0.95,0.57 1.35,0.94 0.4,0.37 0.75,0.8 1.05,1.3 0.31,0.49 0.54,1.05 0.69,1.67 0.15,0.6 0.22,1.27 0.22,1.98l0 0.47c0,0.76 -0.07,1.46 -0.22,2.09 -0.15,0.63 -0.38,1.21 -0.69,1.73 -0.3,0.5 -0.65,0.95 -1.04,1.33 -0.41,0.39 -0.86,0.71 -1.36,0.96 -0.49,0.25 -1,0.44 -1.53,0.57 -0.54,0.12 -1.09,0.18 -1.66,0.18zm-1.44 -1.06c0.46,0.11 0.94,0.16 1.44,0.16 0.5,0 0.99,-0.05 1.45,-0.16 0.46,-0.11 0.91,-0.27 1.33,-0.49 0.43,-0.21 0.81,-0.48 1.15,-0.81 0.34,-0.32 0.64,-0.7 0.89,-1.14 0.26,-0.43 0.45,-0.93 0.58,-1.48 0.14,-0.56 0.2,-1.19 0.2,-1.88l0 -0.47c0,-0.65 -0.06,-1.24 -0.19,-1.77 -0.13,-0.52 -0.33,-1 -0.58,-1.42 -0.26,-0.42 -0.56,-0.79 -0.9,-1.1 -0.34,-0.32 -0.72,-0.58 -1.14,-0.79 -0.43,-0.22 -0.88,-0.38 -1.34,-0.48 -0.46,-0.11 -0.95,-0.16 -1.45,-0.16 -0.5,0 -0.98,0.05 -1.44,0.16 -0.46,0.1 -0.92,0.26 -1.35,0.48 -0.42,0.21 -0.8,0.47 -1.15,0.79 -0.33,0.32 -0.64,0.68 -0.89,1.1 -0.26,0.42 -0.45,0.9 -0.58,1.42 -0.13,0.53 -0.2,1.12 -0.2,1.77l0 0.47c0,0.69 0.07,1.32 0.2,1.88 0.13,0.55 0.33,1.05 0.58,1.48 0.26,0.43 0.56,0.82 0.9,1.14 0.34,0.33 0.73,0.6 1.15,0.81 0.43,0.22 0.88,0.38 1.34,0.49zm1.44 -1.73c0.29,0 0.58,-0.04 0.85,-0.1 0.28,-0.07 0.55,-0.17 0.81,-0.3 0.26,-0.12 0.49,-0.29 0.7,-0.49 0.22,-0.21 0.41,-0.47 0.59,-0.76 0.17,-0.3 0.3,-0.64 0.38,-1.04 0.09,-0.4 0.13,-0.86 0.13,-1.38l0 -0.47c0,-0.93 -0.17,-1.67 -0.51,-2.22 -0.17,-0.28 -0.37,-0.52 -0.58,-0.73 -0.21,-0.19 -0.45,-0.35 -0.71,-0.48 -0.26,-0.13 -0.53,-0.23 -0.81,-0.29 -0.28,-0.07 -0.56,-0.1 -0.85,-0.1 -0.28,0 -0.56,0.03 -0.84,0.09 -0.27,0.07 -0.55,0.17 -0.82,0.3 -0.26,0.13 -0.49,0.29 -0.71,0.49 -0.22,0.2 -0.41,0.44 -0.59,0.72 -0.16,0.27 -0.29,0.59 -0.38,0.95 -0.09,0.38 -0.13,0.8 -0.13,1.27l0 0.47c0,0.52 0.04,0.98 0.13,1.38 0.09,0.4 0.22,0.74 0.39,1.03 0.17,0.3 0.37,0.55 0.59,0.76 0.21,0.21 0.45,0.38 0.7,0.5 0.27,0.13 0.55,0.23 0.82,0.3 0.27,0.06 0.55,0.1 0.84,0.1zm1.05 0.77c-0.35,0.08 -0.7,0.13 -1.05,0.13 -0.35,0 -0.7,-0.05 -1.04,-0.13 -0.34,-0.08 -0.68,-0.2 -1.01,-0.36 -0.34,-0.17 -0.66,-0.39 -0.94,-0.66 -0.27,-0.27 -0.52,-0.59 -0.73,-0.95 -0.22,-0.38 -0.39,-0.81 -0.49,-1.3 -0.11,-0.47 -0.16,-0.99 -0.16,-1.57l0 -0.47c0,-0.54 0.05,-1.03 0.16,-1.47 0.1,-0.46 0.27,-0.87 0.49,-1.22 0.22,-0.35 0.46,-0.66 0.74,-0.91 0.28,-0.26 0.59,-0.47 0.93,-0.63 0.33,-0.17 0.67,-0.29 1.01,-0.37 0.34,-0.08 0.69,-0.12 1.04,-0.12 0.36,0 0.71,0.04 1.06,0.12 0.33,0.08 0.67,0.2 1,0.37 0.33,0.16 0.64,0.37 0.92,0.63 0.27,0.26 0.52,0.56 0.74,0.9 0.43,0.71 0.64,1.61 0.64,2.7l0 0.47c0,0.58 -0.05,1.1 -0.15,1.58 -0.11,0.48 -0.27,0.91 -0.49,1.29 -0.22,0.36 -0.46,0.69 -0.74,0.95 -0.28,0.27 -0.59,0.49 -0.92,0.66 -0.33,0.16 -0.67,0.28 -1.01,0.36zm10.1 1.34l0 -13.04 2.99 0 0 8.5 5.82 -8.5 2.77 0 0 13.49 -2.99 0 0 -8.5 -5.82 8.5 -2.77 0 0 -0.45zm0.9 -12.14l0 11.69 1.4 0 7.19 -10.5 0 10.5 1.19 0 0 -11.69 -1.4 0 -7.19 10.5 0 -10.5 -1.19 0zm20.88 12.82c-0.54,0 -1.05,-0.04 -1.53,-0.12 -0.48,-0.08 -0.93,-0.2 -1.34,-0.36 -0.42,-0.17 -0.79,-0.37 -1.12,-0.61 -0.33,-0.24 -0.61,-0.52 -0.85,-0.84 -0.25,-0.33 -0.44,-0.68 -0.57,-1.06 -0.14,-0.38 -0.23,-0.79 -0.26,-1.22l-0.04 -0.48 2.95 0 0.07 0.36c0.03,0.17 0.08,0.32 0.15,0.45 0.07,0.14 0.15,0.26 0.26,0.37 0.1,0.11 0.23,0.21 0.37,0.3 0.15,0.09 0.32,0.16 0.51,0.22 0.19,0.07 0.41,0.11 0.64,0.15 0.23,0.03 0.49,0.05 0.76,0.05 0.51,0 0.95,-0.05 1.31,-0.13 0.34,-0.08 0.61,-0.2 0.81,-0.34 0.19,-0.15 0.34,-0.31 0.43,-0.48 0.09,-0.15 0.13,-0.32 0.13,-0.5 0,-0.25 -0.04,-0.48 -0.11,-0.66 -0.08,-0.18 -0.19,-0.33 -0.34,-0.46 -0.16,-0.14 -0.38,-0.24 -0.66,-0.31 -0.32,-0.08 -0.72,-0.12 -1.19,-0.12l-2.61 0 0 -2.61 2.47 0c0.39,0 0.73,-0.04 1,-0.11 0.24,-0.06 0.43,-0.16 0.56,-0.27 0.14,-0.12 0.24,-0.27 0.3,-0.43 0.07,-0.18 0.11,-0.4 0.11,-0.64 0,-0.16 -0.04,-0.31 -0.11,-0.45 -0.08,-0.15 -0.21,-0.3 -0.38,-0.43 -0.17,-0.14 -0.4,-0.24 -0.67,-0.31 -0.29,-0.08 -0.64,-0.11 -1.05,-0.11 -0.45,0 -0.84,0.03 -1.15,0.1 -0.29,0.06 -0.52,0.16 -0.69,0.27 -0.17,0.12 -0.3,0.27 -0.4,0.43 -0.1,0.17 -0.18,0.37 -0.21,0.6l-0.06 0.38 -2.96 0 0.04 -0.49c0.03,-0.39 0.12,-0.77 0.25,-1.13 0.13,-0.36 0.32,-0.69 0.55,-1 0.23,-0.31 0.51,-0.59 0.82,-0.83 0.32,-0.24 0.67,-0.45 1.07,-0.62 0.4,-0.17 0.83,-0.3 1.28,-0.39 0.46,-0.08 0.95,-0.12 1.46,-0.12 0.85,0 1.59,0.09 2.23,0.27 0.66,0.19 1.21,0.48 1.65,0.86 0.44,0.38 0.77,0.83 0.99,1.32 0.22,0.5 0.33,1.05 0.33,1.65 0,0.34 -0.05,0.67 -0.13,0.97 -0.09,0.31 -0.22,0.6 -0.4,0.86 -0.18,0.27 -0.41,0.51 -0.7,0.72l-0.03 0.02 0.27 0.15c0.37,0.23 0.66,0.5 0.86,0.81 0.2,0.3 0.36,0.63 0.45,0.97 0.1,0.35 0.15,0.72 0.15,1.11 0,0.38 -0.05,0.76 -0.17,1.11 -0.11,0.36 -0.28,0.7 -0.5,1.03 -0.22,0.32 -0.5,0.62 -0.82,0.87 -0.32,0.25 -0.69,0.48 -1.11,0.67 -0.42,0.19 -0.89,0.33 -1.4,0.42 -0.52,0.1 -1.07,0.14 -1.67,0.14zm-1.38 -1c0.42,0.07 0.88,0.1 1.38,0.1 0.55,0 1.06,-0.04 1.51,-0.12 0.44,-0.08 0.84,-0.2 1.19,-0.36 0.34,-0.15 0.66,-0.34 0.92,-0.55 0.25,-0.2 0.47,-0.43 0.64,-0.68 0.17,-0.25 0.3,-0.51 0.39,-0.79 0.08,-0.27 0.12,-0.55 0.12,-0.84 0,-0.31 -0.04,-0.6 -0.11,-0.86 -0.07,-0.26 -0.19,-0.5 -0.33,-0.72 -0.14,-0.21 -0.34,-0.39 -0.59,-0.55 -0.26,-0.16 -0.6,-0.3 -1.01,-0.41l-1.33 -0.36 1.29 -0.49c0.3,-0.11 0.55,-0.25 0.76,-0.4 0.19,-0.14 0.35,-0.31 0.48,-0.49 0.12,-0.18 0.21,-0.39 0.27,-0.6 0.07,-0.22 0.1,-0.47 0.1,-0.73 0,-0.48 -0.09,-0.9 -0.25,-1.28 -0.17,-0.38 -0.42,-0.72 -0.76,-1.01 -0.34,-0.3 -0.77,-0.52 -1.3,-0.68 -0.56,-0.15 -1.22,-0.23 -1.99,-0.23 -0.46,0 -0.9,0.03 -1.29,0.11 -0.4,0.07 -0.76,0.18 -1.09,0.32 -0.33,0.14 -0.63,0.31 -0.88,0.51 -0.26,0.19 -0.47,0.41 -0.65,0.66 -0.18,0.24 -0.33,0.5 -0.43,0.77l-0.12 0.41 1.21 0c0.06,-0.2 0.14,-0.38 0.24,-0.54 0.16,-0.28 0.38,-0.51 0.65,-0.7 0.27,-0.19 0.61,-0.33 1.02,-0.42 0.38,-0.08 0.83,-0.12 1.34,-0.12 0.48,0 0.91,0.04 1.28,0.14 0.39,0.1 0.72,0.26 0.99,0.47 0.27,0.22 0.48,0.46 0.62,0.71 0.15,0.28 0.22,0.57 0.22,0.88 0,0.36 -0.06,0.68 -0.17,0.97 -0.12,0.3 -0.3,0.55 -0.54,0.77 -0.24,0.21 -0.55,0.37 -0.93,0.47 -0.34,0.09 -0.76,0.14 -1.23,0.14l-1.57 0 0 0.81 1.71 0c0.54,0 1.01,0.05 1.4,0.15 0.43,0.1 0.77,0.27 1.03,0.49 0.26,0.23 0.45,0.49 0.58,0.8 0.13,0.3 0.19,0.64 0.19,1.01 0,0.33 -0.08,0.65 -0.24,0.94 -0.16,0.28 -0.39,0.53 -0.69,0.76 -0.3,0.22 -0.68,0.39 -1.14,0.49 -0.43,0.1 -0.93,0.16 -1.51,0.16 -0.31,0 -0.61,-0.02 -0.89,-0.06 -0.27,-0.04 -0.54,-0.1 -0.79,-0.18 -0.25,-0.08 -0.48,-0.19 -0.69,-0.31 -0.21,-0.12 -0.4,-0.28 -0.56,-0.45 -0.17,-0.17 -0.31,-0.37 -0.41,-0.58l-0.14 -0.32 -1.23 0c0.04,0.17 0.08,0.34 0.14,0.5 0.11,0.3 0.26,0.57 0.44,0.82 0.19,0.25 0.41,0.47 0.67,0.66 0.27,0.19 0.58,0.36 0.92,0.49 0.35,0.14 0.73,0.25 1.16,0.32zm11.7 0.32l0 -13.04 5.91 0c0.54,0 1.04,0.04 1.5,0.12 0.46,0.08 0.88,0.2 1.25,0.36 0.37,0.16 0.69,0.36 0.97,0.59 0.28,0.23 0.51,0.5 0.7,0.8 0.18,0.3 0.32,0.62 0.41,0.96 0.09,0.33 0.13,0.69 0.13,1.07 0,0.32 -0.05,0.64 -0.16,0.95 -0.1,0.3 -0.26,0.6 -0.46,0.88 -0.19,0.27 -0.41,0.51 -0.66,0.7l0.19 0.11c0.34,0.21 0.63,0.47 0.87,0.78 0.23,0.3 0.41,0.64 0.52,0.99 0.12,0.36 0.17,0.74 0.17,1.14 0,0.61 -0.1,1.15 -0.3,1.65 -0.21,0.49 -0.52,0.93 -0.94,1.3 -0.41,0.37 -0.94,0.64 -1.57,0.82 -0.61,0.18 -1.33,0.27 -2.14,0.27l-6.39 0 0 -0.45zm0.9 -12.14l0 11.69 5.49 0c0.73,0 1.37,-0.08 1.89,-0.23 0.5,-0.14 0.91,-0.35 1.23,-0.63 0.31,-0.28 0.54,-0.61 0.7,-0.98 0.15,-0.38 0.23,-0.81 0.23,-1.3 0,-0.31 -0.04,-0.6 -0.12,-0.86 -0.09,-0.26 -0.22,-0.51 -0.39,-0.73 -0.17,-0.22 -0.37,-0.41 -0.62,-0.56 -0.25,-0.15 -0.55,-0.27 -0.9,-0.36l-1.47 -0.37 1.44 -0.49c0.23,-0.08 0.44,-0.19 0.63,-0.33 0.19,-0.14 0.36,-0.32 0.51,-0.54 0.15,-0.21 0.27,-0.43 0.34,-0.65 0.07,-0.21 0.11,-0.43 0.11,-0.66 0,-0.3 -0.03,-0.58 -0.1,-0.84 -0.07,-0.26 -0.17,-0.5 -0.31,-0.72 -0.13,-0.21 -0.3,-0.41 -0.51,-0.58 -0.21,-0.17 -0.46,-0.33 -0.75,-0.46 -0.3,-0.13 -0.65,-0.23 -1.05,-0.29 -0.39,-0.07 -0.84,-0.11 -1.34,-0.11l-5.01 0zm2.09 9.83l3.4 0c0.4,0 0.75,-0.03 1.02,-0.1 0.24,-0.06 0.43,-0.15 0.56,-0.26 0.12,-0.11 0.22,-0.25 0.28,-0.4 0.07,-0.17 0.11,-0.38 0.11,-0.61 0,-0.25 -0.04,-0.46 -0.11,-0.64 -0.06,-0.16 -0.16,-0.3 -0.29,-0.42 -0.13,-0.11 -0.31,-0.2 -0.55,-0.26 -0.28,-0.07 -0.62,-0.11 -1.02,-0.11l-3.4 0 0 2.8zm3.4 0.9l-4.3 0 0 -4.6 4.3 0c0.47,0 0.89,0.05 1.24,0.14 0.38,0.1 0.69,0.25 0.93,0.46 0.23,0.21 0.41,0.47 0.53,0.76 0.11,0.29 0.17,0.61 0.17,0.97 0,0.34 -0.06,0.66 -0.17,0.94 -0.12,0.29 -0.3,0.54 -0.53,0.75 -0.24,0.2 -0.55,0.36 -0.93,0.45 -0.35,0.09 -0.77,0.13 -1.24,0.13zm-3.4 -6.31l2.92 0c0.42,0 0.76,-0.03 1.04,-0.1 0.24,-0.06 0.43,-0.15 0.55,-0.26 0.12,-0.11 0.22,-0.25 0.28,-0.4 0.07,-0.16 0.1,-0.35 0.1,-0.57 0,-0.2 -0.03,-0.37 -0.1,-0.52 -0.06,-0.14 -0.15,-0.27 -0.27,-0.37 -0.12,-0.1 -0.31,-0.18 -0.55,-0.24 -0.28,-0.07 -0.63,-0.1 -1.05,-0.1l-2.92 0 0 2.56zm2.92 0.9l-3.82 0 0 -4.36 3.82 0c0.48,0 0.9,0.04 1.25,0.13 0.38,0.08 0.7,0.23 0.93,0.43 0.23,0.19 0.41,0.43 0.52,0.69 0.11,0.27 0.17,0.56 0.17,0.88 0,0.34 -0.05,0.64 -0.16,0.91 -0.12,0.28 -0.3,0.53 -0.53,0.73 -0.23,0.21 -0.54,0.36 -0.92,0.46 -0.35,0.09 -0.77,0.13 -1.26,0.13zm15.76 7.5c-0.57,0 -1.12,-0.06 -1.65,-0.18 -0.52,-0.13 -1.04,-0.32 -1.54,-0.57 -0.5,-0.25 -0.95,-0.57 -1.36,-0.95 -0.4,-0.38 -0.75,-0.83 -1.05,-1.34 -0.31,-0.52 -0.54,-1.1 -0.69,-1.74 -0.14,-0.63 -0.22,-1.32 -0.22,-2.08l0 -0.47c0,-0.71 0.08,-1.37 0.23,-1.98 0.15,-0.61 0.38,-1.17 0.68,-1.67 0.3,-0.5 0.66,-0.93 1.06,-1.31 0.4,-0.37 0.86,-0.68 1.35,-0.93 0.5,-0.24 1.02,-0.43 1.54,-0.55 0.54,-0.12 1.08,-0.18 1.65,-0.18 0.56,0 1.12,0.06 1.65,0.18 0.53,0.12 1.05,0.31 1.54,0.55 0.49,0.25 0.95,0.57 1.35,0.94 0.39,0.37 0.75,0.8 1.05,1.29 0.3,0.5 0.53,1.06 0.68,1.68 0.15,0.6 0.23,1.27 0.23,1.98l0 0.47c0,0.76 -0.08,1.45 -0.22,2.08 -0.15,0.64 -0.38,1.22 -0.69,1.74 -0.3,0.51 -0.65,0.96 -1.05,1.34 -0.4,0.38 -0.85,0.7 -1.35,0.95 -0.5,0.25 -1.01,0.44 -1.54,0.57 -0.53,0.12 -1.08,0.18 -1.65,0.18zm-1.44 -1.06c0.46,0.11 0.94,0.16 1.44,0.16 0.5,0 0.98,-0.05 1.45,-0.16 0.46,-0.11 0.91,-0.27 1.33,-0.49 0.42,-0.21 0.8,-0.48 1.14,-0.8 0.34,-0.33 0.64,-0.71 0.9,-1.15 0.26,-0.43 0.45,-0.93 0.58,-1.48 0.13,-0.56 0.2,-1.19 0.2,-1.88l0 -0.47c0,-0.65 -0.07,-1.24 -0.2,-1.77 -0.13,-0.52 -0.32,-1 -0.58,-1.42 -0.26,-0.42 -0.56,-0.79 -0.9,-1.11 -0.34,-0.31 -0.72,-0.58 -1.13,-0.79 -0.43,-0.21 -0.88,-0.37 -1.34,-0.47 -0.46,-0.11 -0.95,-0.16 -1.45,-0.16 -0.5,0 -0.98,0.05 -1.44,0.16 -0.47,0.1 -0.92,0.26 -1.34,0.48 -0.43,0.21 -0.82,0.47 -1.15,0.79 -0.34,0.31 -0.65,0.68 -0.9,1.1 -0.26,0.42 -0.45,0.9 -0.58,1.43 -0.13,0.53 -0.2,1.11 -0.2,1.76l0 0.47c0,0.69 0.07,1.32 0.2,1.88 0.13,0.55 0.33,1.05 0.58,1.48 0.26,0.44 0.56,0.82 0.9,1.15 0.34,0.32 0.73,0.59 1.15,0.8 0.42,0.22 0.87,0.38 1.34,0.49zm1.44 -1.73c0.29,0 0.58,-0.04 0.84,-0.1 0.28,-0.07 0.55,-0.17 0.82,-0.3 0.25,-0.12 0.49,-0.29 0.7,-0.49 0.21,-0.21 0.41,-0.47 0.58,-0.76 0.17,-0.3 0.3,-0.65 0.39,-1.04 0.09,-0.4 0.13,-0.86 0.13,-1.38l0 -0.47c0,-0.48 -0.04,-0.9 -0.13,-1.27 -0.09,-0.36 -0.22,-0.68 -0.38,-0.95 -0.18,-0.28 -0.37,-0.52 -0.59,-0.73 -0.21,-0.19 -0.44,-0.36 -0.7,-0.48 -0.26,-0.13 -0.53,-0.23 -0.81,-0.29 -0.27,-0.07 -0.56,-0.1 -0.85,-0.1 -0.29,0 -0.57,0.03 -0.84,0.09 -0.28,0.07 -0.55,0.17 -0.82,0.3 -0.26,0.12 -0.5,0.29 -0.71,0.49 -0.22,0.2 -0.42,0.44 -0.59,0.72 -0.17,0.27 -0.29,0.59 -0.38,0.95 -0.09,0.37 -0.13,0.8 -0.13,1.27l0 0.47c0,0.52 0.04,0.98 0.13,1.38 0.09,0.4 0.22,0.74 0.39,1.03 0.17,0.3 0.37,0.56 0.58,0.77 0.22,0.2 0.45,0.37 0.71,0.49 0.27,0.13 0.54,0.23 0.82,0.3 0.27,0.06 0.55,0.1 0.84,0.1zm1.05 0.77c-0.35,0.08 -0.7,0.13 -1.05,0.13 -0.35,0 -0.7,-0.05 -1.04,-0.13 -0.35,-0.08 -0.68,-0.2 -1.02,-0.36 -0.34,-0.17 -0.65,-0.39 -0.93,-0.66 -0.27,-0.26 -0.52,-0.58 -0.74,-0.95 -0.22,-0.38 -0.38,-0.81 -0.49,-1.29 -0.1,-0.48 -0.15,-1 -0.15,-1.58l0 -0.47c0,-0.54 0.05,-1.03 0.15,-1.47 0.11,-0.46 0.28,-0.87 0.5,-1.22 0.21,-0.35 0.46,-0.66 0.74,-0.91 0.28,-0.26 0.58,-0.47 0.92,-0.63 0.34,-0.17 0.67,-0.29 1.01,-0.37 0.35,-0.08 0.7,-0.12 1.05,-0.12 0.35,0 0.7,0.04 1.05,0.12 0.34,0.08 0.67,0.2 1,0.36 0.34,0.17 0.65,0.38 0.92,0.64 0.28,0.25 0.53,0.56 0.74,0.9 0.22,0.36 0.39,0.77 0.5,1.23 0.1,0.45 0.15,0.94 0.15,1.47l0 0.47c0,0.58 -0.05,1.1 -0.15,1.58 -0.11,0.48 -0.28,0.92 -0.49,1.29 -0.22,0.36 -0.46,0.68 -0.74,0.95 -0.28,0.27 -0.59,0.49 -0.92,0.66 -0.33,0.16 -0.67,0.28 -1.01,0.36zm8.43 4.3l0 -5.27 1.75 0 0.16 -0.34c0.09,-0.24 0.18,-0.55 0.27,-0.91 0.08,-0.38 0.16,-0.77 0.22,-1.19 0.07,-0.43 0.13,-0.9 0.18,-1.4 0.05,-0.49 0.09,-1 0.11,-1.52 0.03,-0.51 0.04,-1.05 0.04,-1.59l0 -3.78 9.69 0 0 10.73 1.78 0 0 5.72 -2.9 0 0 -2.96 -8.4 0 0 2.96 -2.9 0 0 -0.45zm0.9 -4.37l0 3.92 1.1 0 0 -2.96 10.2 0 0 2.96 1.1 0 0 -3.92 -1.78 0 0 -10.73 -7.89 0 0 2.88c0,0.54 -0.01,1.09 -0.04,1.63 -0.02,0.52 -0.06,1.05 -0.12,1.57 -0.05,0.5 -0.11,0.99 -0.18,1.44 -0.07,0.47 -0.15,0.89 -0.24,1.26 -0.09,0.39 -0.19,0.74 -0.3,1.03 -0.12,0.31 -0.26,0.56 -0.39,0.74l-0.14 0.18 -1.32 0zm3.9 -0.9l4.63 0 0 -7.97 -3.75 0 0 1.49c0,0.67 -0.03,1.34 -0.07,1.99 -0.05,0.65 -0.12,1.3 -0.21,1.93 -0.09,0.64 -0.21,1.23 -0.35,1.75l-0.25 0.81zm5.08 0.9l-6.44 0 0.28 -0.63c0.17,-0.38 0.33,-0.82 0.46,-1.31 0.13,-0.49 0.24,-1.04 0.33,-1.65 0.09,-0.61 0.15,-1.23 0.2,-1.87 0.04,-0.63 0.07,-1.27 0.07,-1.92l0 -2.39 5.55 0 0 9.77 -0.45 0zm13.81 2.09c-0.57,0 -1.12,-0.06 -1.64,-0.18 -0.53,-0.13 -1.02,-0.32 -1.49,-0.57 -0.47,-0.26 -0.89,-0.58 -1.26,-0.97 -0.37,-0.38 -0.69,-0.83 -0.96,-1.34 -0.27,-0.51 -0.47,-1.09 -0.6,-1.73 -0.13,-0.63 -0.2,-1.32 -0.2,-2.07l0 -0.47c0,-0.72 0.07,-1.38 0.21,-1.98 0.15,-0.61 0.37,-1.17 0.66,-1.67 0.28,-0.49 0.62,-0.92 1,-1.3 0.38,-0.37 0.81,-0.68 1.29,-0.93 0.46,-0.25 0.95,-0.43 1.45,-0.56 0.5,-0.12 1.01,-0.18 1.54,-0.18 0.52,0 1.01,0.05 1.48,0.14 0.46,0.1 0.9,0.24 1.29,0.44 0.39,0.19 0.75,0.42 1.06,0.68 0.32,0.27 0.61,0.57 0.85,0.91 0.24,0.33 0.44,0.68 0.61,1.05 0.16,0.37 0.28,0.76 0.37,1.17l0.11 0.54 -2.99 0 -0.11 -0.27c-0.12,-0.27 -0.25,-0.52 -0.41,-0.75 -0.16,-0.23 -0.34,-0.43 -0.54,-0.61 -0.17,-0.16 -0.4,-0.29 -0.67,-0.37 -0.29,-0.09 -0.65,-0.13 -1.05,-0.13 -0.28,0 -0.54,0.03 -0.79,0.09 -0.25,0.07 -0.5,0.16 -0.73,0.29 -0.23,0.12 -0.44,0.28 -0.62,0.48 -0.2,0.2 -0.37,0.44 -0.52,0.72 -0.15,0.27 -0.26,0.59 -0.34,0.96 -0.08,0.37 -0.12,0.8 -0.12,1.28l0 0.47c0,0.51 0.04,0.97 0.12,1.38 0.08,0.39 0.19,0.74 0.34,1.03 0.15,0.3 0.33,0.56 0.52,0.76 0.18,0.21 0.39,0.37 0.62,0.5 0.24,0.13 0.48,0.23 0.73,0.3 0.25,0.06 0.51,0.1 0.79,0.1 0.34,0 0.66,-0.05 0.94,-0.13 0.28,-0.08 0.53,-0.2 0.75,-0.36 0.23,-0.16 0.42,-0.36 0.58,-0.57 0.16,-0.23 0.29,-0.49 0.39,-0.77l0.1 -0.31 3.02 0 -0.12 0.55c-0.1,0.44 -0.25,0.85 -0.43,1.24 -0.19,0.39 -0.41,0.75 -0.68,1.09 -0.27,0.33 -0.57,0.62 -0.9,0.88 -0.33,0.25 -0.68,0.47 -1.07,0.64 -0.39,0.18 -0.8,0.31 -1.23,0.4 -0.44,0.09 -0.89,0.13 -1.35,0.13zm-1.43 -1.06c0.44,0.11 0.92,0.16 1.43,0.16 0.41,0 0.81,-0.03 1.17,-0.11 0.36,-0.07 0.71,-0.18 1.04,-0.33 0.32,-0.15 0.62,-0.33 0.89,-0.54 0.27,-0.21 0.52,-0.46 0.75,-0.74 0.22,-0.27 0.41,-0.58 0.57,-0.9l0.2 -0.51 -1.23 0c-0.11,0.25 -0.24,0.49 -0.39,0.7 -0.22,0.3 -0.48,0.56 -0.79,0.78 -0.3,0.22 -0.65,0.39 -1.02,0.49 -0.37,0.11 -0.77,0.17 -1.19,0.17 -0.35,0 -0.69,-0.05 -1.01,-0.13 -0.33,-0.09 -0.64,-0.22 -0.94,-0.39 -0.31,-0.17 -0.6,-0.39 -0.85,-0.67 -0.25,-0.27 -0.47,-0.6 -0.65,-0.96 -0.2,-0.37 -0.34,-0.79 -0.43,-1.27 -0.09,-0.46 -0.14,-0.98 -0.14,-1.55l0 -0.47c0,-0.53 0.05,-1.02 0.14,-1.46 0.09,-0.46 0.24,-0.86 0.43,-1.21 0.19,-0.35 0.41,-0.66 0.66,-0.91 0.24,-0.26 0.53,-0.48 0.84,-0.65 0.3,-0.16 0.62,-0.29 0.94,-0.37 0.33,-0.08 0.66,-0.12 1.01,-0.12 0.49,0 0.93,0.06 1.31,0.17 0.4,0.13 0.74,0.31 1.02,0.56 0.25,0.23 0.48,0.49 0.67,0.77 0.13,0.19 0.26,0.41 0.37,0.63l1.27 0 -0.18 -0.45c-0.13,-0.31 -0.31,-0.61 -0.51,-0.89 -0.2,-0.27 -0.43,-0.52 -0.69,-0.73 -0.26,-0.22 -0.56,-0.42 -0.89,-0.58 -0.32,-0.16 -0.68,-0.28 -1.07,-0.36 -0.4,-0.08 -0.83,-0.12 -1.3,-0.12 -0.46,0 -0.9,0.05 -1.33,0.16 -0.43,0.1 -0.84,0.26 -1.24,0.47 -0.4,0.21 -0.76,0.47 -1.08,0.79 -0.32,0.31 -0.61,0.68 -0.86,1.11 -0.24,0.41 -0.43,0.89 -0.55,1.41 -0.13,0.54 -0.19,1.13 -0.19,1.78l0 0.47c0,0.7 0.06,1.33 0.17,1.89 0.12,0.56 0.29,1.05 0.52,1.49 0.23,0.44 0.5,0.82 0.81,1.14 0.31,0.32 0.66,0.59 1.05,0.8 0.4,0.21 0.82,0.38 1.27,0.48zm14.5 0.38l0 -10.28 -4.3 0 0 -2.76 11.58 0 0 2.76 -4.3 0 0 10.73 -2.98 0 0 -0.45zm0.9 -10.73l0 10.28 1.18 0 0 -10.73 4.3 0 0 -0.96 -9.78 0 0 0.96 4.3 0 0 0.45zm10.44 10.73l0 -13.04 5.9 0c0.55,0 1.05,0.04 1.5,0.12 0.47,0.08 0.89,0.2 1.25,0.36 0.37,0.16 0.7,0.36 0.97,0.59 0.29,0.23 0.52,0.5 0.71,0.8 0.18,0.29 0.31,0.61 0.4,0.95 0.09,0.34 0.14,0.7 0.14,1.08 0,0.32 -0.06,0.64 -0.16,0.95 -0.1,0.3 -0.26,0.6 -0.46,0.88 -0.19,0.27 -0.41,0.51 -0.66,0.7l0.19 0.11c0.34,0.21 0.63,0.47 0.87,0.78 0.23,0.3 0.4,0.64 0.52,0.99 0.11,0.36 0.17,0.74 0.17,1.14 0,0.61 -0.1,1.16 -0.31,1.65 -0.2,0.49 -0.51,0.93 -0.93,1.3 -0.41,0.37 -0.94,0.64 -1.58,0.82 -0.61,0.18 -1.32,0.27 -2.14,0.27l-6.38 0 0 -0.45zm0.9 -12.14l0 11.69 5.48 0c0.74,0 1.37,-0.08 1.9,-0.23 0.5,-0.14 0.91,-0.35 1.22,-0.63 0.31,-0.28 0.55,-0.61 0.7,-0.98 0.16,-0.38 0.24,-0.81 0.24,-1.3 0,-0.31 -0.04,-0.6 -0.13,-0.86 -0.08,-0.26 -0.21,-0.5 -0.38,-0.73 -0.17,-0.22 -0.38,-0.41 -0.62,-0.56 -0.25,-0.15 -0.56,-0.27 -0.9,-0.36l-1.48 -0.37 1.44 -0.49c0.23,-0.08 0.45,-0.19 0.63,-0.33 0.2,-0.15 0.37,-0.33 0.51,-0.54 0.16,-0.21 0.27,-0.43 0.35,-0.65 0.07,-0.21 0.11,-0.43 0.11,-0.66 0,-0.31 -0.04,-0.59 -0.11,-0.85 -0.06,-0.25 -0.17,-0.49 -0.3,-0.71 -0.13,-0.21 -0.3,-0.41 -0.51,-0.58 -0.21,-0.17 -0.46,-0.33 -0.75,-0.46 -0.31,-0.13 -0.66,-0.23 -1.05,-0.29 -0.4,-0.07 -0.85,-0.11 -1.35,-0.11l-5 0zm2.08 9.83l3.4 0c0.41,0 0.75,-0.03 1.03,-0.1 0.24,-0.06 0.42,-0.15 0.55,-0.26 0.13,-0.11 0.23,-0.25 0.29,-0.4 0.07,-0.17 0.1,-0.38 0.1,-0.61 0,-0.25 -0.03,-0.46 -0.1,-0.64 -0.06,-0.16 -0.16,-0.3 -0.29,-0.42 -0.13,-0.11 -0.32,-0.2 -0.56,-0.26 -0.27,-0.07 -0.61,-0.11 -1.02,-0.11l-3.4 0 0 2.8zm3.4 0.9l-4.3 0 0 -4.6 4.3 0c0.48,0 0.9,0.05 1.25,0.14 0.38,0.1 0.69,0.25 0.92,0.46 0.24,0.21 0.42,0.47 0.54,0.76 0.1,0.29 0.16,0.61 0.16,0.97 0,0.34 -0.06,0.66 -0.17,0.94 -0.11,0.29 -0.29,0.54 -0.53,0.75 -0.24,0.2 -0.55,0.36 -0.93,0.45 -0.34,0.09 -0.76,0.13 -1.24,0.13zm-3.4 -6.31l2.92 0c0.42,0 0.77,-0.03 1.05,-0.1 0.24,-0.06 0.42,-0.15 0.54,-0.26 0.13,-0.11 0.22,-0.24 0.29,-0.4 0.06,-0.16 0.1,-0.35 0.1,-0.57 0,-0.2 -0.04,-0.37 -0.1,-0.52 -0.06,-0.14 -0.15,-0.27 -0.28,-0.37 -0.12,-0.1 -0.3,-0.18 -0.55,-0.24 -0.27,-0.07 -0.62,-0.1 -1.05,-0.1l-2.92 0 0 2.56zm2.92 0.9l-3.82 0 0 -4.36 3.82 0c0.49,0 0.9,0.04 1.26,0.12 0.38,0.09 0.69,0.24 0.92,0.44 0.23,0.19 0.41,0.42 0.53,0.69 0.11,0.27 0.17,0.56 0.17,0.88 0,0.34 -0.06,0.64 -0.17,0.91 -0.11,0.28 -0.29,0.53 -0.52,0.73 -0.23,0.21 -0.54,0.36 -0.93,0.46 -0.35,0.09 -0.77,0.13 -1.26,0.13zm15.76 7.5c-1.13,0 -2.19,-0.24 -3.18,-0.73 -0.5,-0.25 -0.95,-0.57 -1.36,-0.95 -0.4,-0.38 -0.75,-0.83 -1.06,-1.34 -0.3,-0.51 -0.53,-1.1 -0.68,-1.74 -0.15,-0.63 -0.22,-1.34 -0.22,-2.1l0 -0.47c0,-0.73 0.07,-1.4 0.21,-2.01 0.14,-0.62 0.37,-1.18 0.66,-1.67 0.29,-0.49 0.63,-0.92 1.01,-1.29 0.39,-0.37 0.82,-0.68 1.3,-0.93 0.48,-0.24 0.98,-0.42 1.49,-0.54 0.51,-0.12 1.05,-0.18 1.59,-0.18 1.98,0 3.52,0.55 4.62,1.65 0.55,0.55 0.97,1.22 1.24,2 0.27,0.76 0.41,1.64 0.41,2.61l0 1.78 -9.53 0c0.02,0.28 0.07,0.53 0.12,0.77 0.09,0.33 0.22,0.63 0.39,0.88 0.18,0.25 0.38,0.48 0.6,0.66 0.22,0.19 0.46,0.34 0.73,0.45 0.28,0.12 0.56,0.21 0.84,0.27 0.27,0.06 0.54,0.09 0.82,0.09 0.44,0 0.83,-0.04 1.17,-0.11 0.32,-0.07 0.58,-0.17 0.79,-0.3 0.22,-0.13 0.4,-0.29 0.56,-0.47 0.15,-0.18 0.27,-0.39 0.37,-0.62l0.11 -0.29 2.9 0 -0.12 0.55c-0.14,0.66 -0.38,1.24 -0.72,1.75 -0.35,0.5 -0.79,0.93 -1.34,1.27 -0.53,0.34 -1.11,0.6 -1.73,0.76 -0.62,0.17 -1.29,0.25 -1.99,0.25zm-2.78 -1.53c0.86,0.42 1.79,0.63 2.78,0.63 0.63,0 1.21,-0.07 1.75,-0.22 0.54,-0.14 1.04,-0.36 1.49,-0.64 0.44,-0.28 0.8,-0.62 1.07,-1.03 0.19,-0.26 0.33,-0.56 0.45,-0.89l-1.17 0c-0.11,0.22 -0.24,0.41 -0.39,0.59 -0.21,0.25 -0.47,0.47 -0.77,0.65 -0.3,0.19 -0.66,0.33 -1.07,0.42 -0.4,0.08 -0.86,0.13 -1.36,0.13 -0.34,0 -0.67,-0.04 -1.01,-0.11 -0.34,-0.07 -0.67,-0.18 -1,-0.32 -0.35,-0.15 -0.67,-0.35 -0.96,-0.59 -0.28,-0.23 -0.53,-0.52 -0.76,-0.84 -0.23,-0.34 -0.4,-0.73 -0.52,-1.17 -0.11,-0.43 -0.16,-0.91 -0.16,-1.44l0 -0.45 9.54 0 0 -0.88c0,-0.87 -0.12,-1.64 -0.35,-2.31 -0.23,-0.65 -0.58,-1.21 -1.04,-1.67 -0.92,-0.92 -2.25,-1.38 -3.98,-1.38 -0.48,0 -0.94,0.05 -1.38,0.16 -0.45,0.1 -0.88,0.26 -1.29,0.46 -0.4,0.21 -0.77,0.47 -1.09,0.78 -0.32,0.3 -0.61,0.67 -0.86,1.09 -0.24,0.42 -0.43,0.89 -0.55,1.42 -0.13,0.54 -0.19,1.14 -0.19,1.81l0 0.47c0,0.7 0.06,1.33 0.2,1.9 0.12,0.55 0.32,1.05 0.57,1.48 0.27,0.44 0.57,0.82 0.91,1.15 0.33,0.32 0.72,0.58 1.14,0.8zm2.66 -9.62c-0.29,0 -0.58,0.02 -0.86,0.08 -0.29,0.06 -0.56,0.14 -0.82,0.25 -0.25,0.1 -0.48,0.24 -0.69,0.41 -0.2,0.16 -0.39,0.36 -0.55,0.58 -0.15,0.22 -0.27,0.48 -0.35,0.76 -0.05,0.17 -0.08,0.36 -0.1,0.56l6.62 0c-0.02,-0.22 -0.05,-0.43 -0.1,-0.62 -0.08,-0.3 -0.19,-0.55 -0.33,-0.76 -0.14,-0.23 -0.31,-0.42 -0.5,-0.57 -0.19,-0.16 -0.41,-0.29 -0.64,-0.39 -0.24,-0.1 -0.51,-0.18 -0.79,-0.23 -0.27,-0.05 -0.57,-0.07 -0.89,-0.07zm-1.04 -0.8c0.34,-0.07 0.69,-0.1 1.04,-0.1 0.37,0 0.72,0.03 1.06,0.09 0.33,0.06 0.66,0.16 0.97,0.29 0.31,0.13 0.6,0.3 0.86,0.52 0.26,0.21 0.49,0.47 0.68,0.76 0.2,0.3 0.35,0.65 0.45,1.04 0.1,0.38 0.15,0.81 0.16,1.28l0.01 0.46 -8.48 0 0 -0.45c0,-0.45 0.05,-0.87 0.15,-1.25 0.11,-0.39 0.28,-0.74 0.49,-1.04 0.21,-0.29 0.45,-0.55 0.72,-0.76 0.27,-0.22 0.57,-0.4 0.91,-0.54 0.32,-0.14 0.65,-0.24 0.98,-0.3zm11.84 11.27l0 -13.04 2.99 0 0 5.25 5.6 0 0 -5.25 2.99 0 0 13.49 -2.99 0 0 -5.49 -5.6 0 0 5.49 -2.99 0 0 -0.45zm0.9 -12.14l0 11.69 1.19 0 0 -5.49 7.4 0 0 5.49 1.19 0 0 -11.69 -1.19 0 0 5.25 -7.4 0 0 -5.25 -1.19 0zm16.15 12.14l0 -13.04 2.99 0 0 5.25 5.61 0 0 -5.25 2.99 0 0 13.49 -2.99 0 0 -5.49 -5.61 0 0 5.49 -2.99 0 0 -0.45zm0.9 -12.14l0 11.69 1.19 0 0 -5.49 7.41 0 0 5.49 1.19 0 0 -11.69 -1.19 0 0 5.25 -7.41 0 0 -5.25 -1.19 0zm20.2 12.82c-0.49,0 -0.94,-0.04 -1.36,-0.13 -0.43,-0.1 -0.83,-0.24 -1.19,-0.43 -0.35,-0.19 -0.67,-0.41 -0.94,-0.67 -0.27,-0.27 -0.51,-0.57 -0.7,-0.9 -0.18,-0.34 -0.32,-0.69 -0.42,-1.07 -0.09,-0.37 -0.14,-0.76 -0.14,-1.16 0,-0.68 0.11,-1.28 0.32,-1.79 0.21,-0.53 0.54,-0.95 0.97,-1.28 0.41,-0.31 0.91,-0.54 1.5,-0.7 0.57,-0.15 1.21,-0.22 1.94,-0.22l3.63 0 0 -0.41c0,-0.49 -0.05,-0.9 -0.16,-1.22 -0.09,-0.29 -0.23,-0.52 -0.4,-0.66 -0.19,-0.17 -0.44,-0.29 -0.74,-0.38 -0.32,-0.09 -0.7,-0.13 -1.15,-0.13 -0.41,0 -0.77,0.03 -1.05,0.11 -0.27,0.07 -0.48,0.16 -0.63,0.29 -0.17,0.14 -0.3,0.28 -0.38,0.43 -0.08,0.13 -0.13,0.28 -0.15,0.43l-0.04 0.4 -2.98 0 0.04 -0.48c0.02,-0.39 0.1,-0.75 0.23,-1.1 0.13,-0.34 0.32,-0.66 0.55,-0.96 0.23,-0.3 0.5,-0.57 0.82,-0.8 0.3,-0.24 0.65,-0.44 1.04,-0.61 0.39,-0.17 0.81,-0.3 1.25,-0.39 0.45,-0.08 0.92,-0.12 1.42,-0.12 0.53,0 1.02,0.04 1.47,0.12 0.47,0.08 0.9,0.21 1.29,0.38 0.41,0.17 0.77,0.39 1.09,0.66 0.31,0.27 0.58,0.6 0.81,0.97 0.22,0.37 0.39,0.79 0.5,1.27 0.11,0.47 0.16,0.99 0.16,1.56l0.01 6.84 0.03 0.71 0.14 1.21 -2.74 0 -0.13 -1.28c-0.28,0.28 -0.6,0.53 -0.97,0.76 -0.41,0.25 -0.87,0.44 -1.36,0.57 -0.48,0.12 -1.01,0.18 -1.58,0.18zm-1.18 -1.01c0.36,0.07 0.75,0.11 1.18,0.11 0.49,0 0.95,-0.05 1.36,-0.15 0.41,-0.11 0.78,-0.26 1.11,-0.46 0.34,-0.21 0.63,-0.45 0.88,-0.7 0.23,-0.25 0.43,-0.52 0.57,-0.81l0.83 -1.66c0.01,1.15 -0.02,2.4 0.09,3.55l0.92 0 -0.04 -1.01 -0.02 -6.85c0,-0.51 -0.05,-0.96 -0.14,-1.37 -0.08,-0.38 -0.21,-0.72 -0.39,-1 -0.17,-0.28 -0.38,-0.53 -0.62,-0.74 -0.25,-0.21 -0.53,-0.39 -0.86,-0.53 -0.32,-0.14 -0.69,-0.24 -1.09,-0.31 -0.4,-0.07 -0.84,-0.11 -1.32,-0.11 -0.45,0 -0.86,0.03 -1.25,0.11 -0.38,0.07 -0.73,0.18 -1.06,0.32 -0.32,0.14 -0.61,0.31 -0.86,0.5 -0.25,0.19 -0.47,0.41 -0.65,0.64 -0.18,0.23 -0.32,0.47 -0.42,0.73l-0.1 0.36 1.21 0c0.04,-0.14 0.1,-0.27 0.18,-0.39 0.14,-0.24 0.33,-0.46 0.58,-0.66 0.25,-0.21 0.58,-0.37 0.97,-0.47 0.37,-0.1 0.8,-0.14 1.28,-0.14 0.53,0 0.99,0.05 1.39,0.17 0.43,0.12 0.79,0.3 1.08,0.55 0.3,0.26 0.53,0.62 0.68,1.07 0.13,0.42 0.2,0.92 0.2,1.5l0 1.31 -4.53 0c-0.65,0 -1.22,0.06 -1.71,0.19 -0.47,0.12 -0.87,0.31 -1.19,0.55 -0.3,0.23 -0.53,0.53 -0.68,0.9 -0.16,0.39 -0.25,0.88 -0.25,1.45 0,0.34 0.04,0.65 0.11,0.95 0.08,0.29 0.19,0.57 0.34,0.83 0.14,0.26 0.32,0.49 0.53,0.7 0.21,0.2 0.46,0.38 0.74,0.53 0.29,0.15 0.6,0.26 0.95,0.34zm1.63 -1.78c0.3,0 0.59,-0.03 0.87,-0.09 0.27,-0.05 0.53,-0.13 0.77,-0.23 0.24,-0.11 0.45,-0.23 0.63,-0.38 0.19,-0.15 0.35,-0.32 0.49,-0.52 0.13,-0.19 0.23,-0.4 0.3,-0.63 0.06,-0.23 0.1,-0.5 0.1,-0.79l0 -0.41 -3.28 0c-0.35,0 -0.66,0.04 -0.92,0.11 -0.26,0.06 -0.47,0.15 -0.65,0.28 -0.15,0.1 -0.27,0.24 -0.34,0.41 -0.08,0.18 -0.13,0.41 -0.13,0.68 0,0.23 0.04,0.44 0.12,0.62 0.08,0.18 0.2,0.35 0.36,0.49 0.16,0.15 0.37,0.26 0.63,0.33 0.29,0.08 0.64,0.13 1.05,0.13zm1.04 0.8c-0.33,0.06 -0.68,0.1 -1.04,0.1 -0.49,0 -0.92,-0.06 -1.29,-0.16 -0.4,-0.12 -0.73,-0.3 -0.99,-0.53 -0.26,-0.24 -0.45,-0.5 -0.58,-0.8 -0.13,-0.3 -0.2,-0.63 -0.2,-0.98 0,-0.4 0.07,-0.75 0.21,-1.05 0.14,-0.32 0.36,-0.58 0.65,-0.78 0.26,-0.19 0.58,-0.33 0.93,-0.42 0.34,-0.08 0.73,-0.13 1.15,-0.13l4.18 0 0 1.31c0,0.37 -0.05,0.72 -0.14,1.04 -0.09,0.33 -0.24,0.63 -0.43,0.9 -0.18,0.26 -0.41,0.5 -0.65,0.7 -0.25,0.2 -0.53,0.37 -0.84,0.5 -0.31,0.13 -0.63,0.23 -0.96,0.3zm9.6 1.05l3.06 -4.47c-0.31,-0.1 -0.59,-0.23 -0.85,-0.37 -0.43,-0.25 -0.78,-0.56 -1.04,-0.92 -0.26,-0.35 -0.46,-0.76 -0.59,-1.21 -0.12,-0.44 -0.19,-0.93 -0.19,-1.46 0,-0.44 0.05,-0.86 0.14,-1.25 0.09,-0.39 0.24,-0.75 0.42,-1.08 0.2,-0.33 0.44,-0.63 0.73,-0.88 0.29,-0.25 0.63,-0.46 1.02,-0.63 0.38,-0.17 0.82,-0.3 1.31,-0.38 0.48,-0.08 1.01,-0.13 1.58,-0.13l5.91 0 0 13.49 -2.99 0 0 -4.8 -2.51 0 -3.06 4.8 -3.42 0 0.48 -0.71zm4.16 -4.48l-2.94 4.29 1.23 0 3.06 -4.8 3.9 0 0 4.8 1.19 0 0 -11.69 -5.01 0c-0.53,0 -1.01,0.04 -1.43,0.11 -0.42,0.07 -0.78,0.18 -1.1,0.32 -0.3,0.13 -0.57,0.3 -0.79,0.49 -0.22,0.19 -0.4,0.41 -0.54,0.65 -0.14,0.25 -0.25,0.53 -0.33,0.84 -0.07,0.31 -0.11,0.66 -0.11,1.04 0,0.45 0.06,0.85 0.16,1.21 0.1,0.35 0.25,0.66 0.44,0.93 0.19,0.26 0.45,0.49 0.77,0.67 0.34,0.19 0.75,0.34 1.23,0.45l0.64 0.15 -0.37 0.54zm-0.78 -3.95c0,0.27 0.04,0.51 0.12,0.72 0.07,0.18 0.17,0.34 0.31,0.46 0.14,0.13 0.34,0.23 0.6,0.29 0.28,0.08 0.64,0.12 1.06,0.12l3.04 0 0 -3.18 -3.04 0c-0.42,0 -0.77,0.04 -1.06,0.11 -0.26,0.07 -0.46,0.17 -0.6,0.3 -0.14,0.12 -0.24,0.27 -0.31,0.46 -0.08,0.2 -0.12,0.44 -0.12,0.72zm-0.72 1.03c-0.12,-0.3 -0.18,-0.65 -0.18,-1.03 0,-0.39 0.06,-0.74 0.18,-1.04 0.12,-0.32 0.31,-0.59 0.55,-0.81 0.25,-0.23 0.57,-0.39 0.97,-0.5 0.36,-0.09 0.79,-0.14 1.29,-0.14l3.94 0 0 4.98 -3.94 0c-0.49,0 -0.93,-0.05 -1.29,-0.15 -0.39,-0.1 -0.72,-0.27 -0.97,-0.49 -0.24,-0.22 -0.43,-0.5 -0.55,-0.82zm26.78 7.66l0 -13.04 2.94 0 4.23 7.38 4.23 -7.38 2.8 0 0 13.49 -2.99 0 0 -7.92 -3.02 5.19 -2.18 0 -3.02 -5.19 0 7.92 -2.99 0 0 -0.45zm0.9 -12.14l0 11.69 1.19 0 0 -10.36 4.44 7.63 1.14 0 4.44 -7.63 0 10.36 1.19 0 0 -11.69 -1.38 0 -4.75 8.29 -4.74 -8.29 -1.53 0zm22.81 12.82c-0.49,0 -0.94,-0.04 -1.37,-0.13 -0.43,-0.1 -0.82,-0.24 -1.18,-0.43 -0.36,-0.19 -0.67,-0.41 -0.94,-0.67 -0.28,-0.27 -0.51,-0.57 -0.7,-0.91 -0.19,-0.33 -0.33,-0.68 -0.42,-1.06 -0.09,-0.37 -0.14,-0.76 -0.14,-1.16 0,-0.68 0.11,-1.28 0.31,-1.79 0.22,-0.53 0.54,-0.95 0.98,-1.28 0.41,-0.31 0.91,-0.54 1.5,-0.7 0.56,-0.15 1.21,-0.22 1.93,-0.22l3.64 0 0 -0.41c0,-0.49 -0.05,-0.9 -0.16,-1.22 -0.09,-0.29 -0.23,-0.51 -0.41,-0.66 -0.19,-0.17 -0.43,-0.29 -0.73,-0.38 -0.32,-0.09 -0.71,-0.13 -1.15,-0.13 -0.41,0 -0.77,0.03 -1.05,0.11 -0.27,0.07 -0.48,0.16 -0.63,0.29 -0.17,0.14 -0.3,0.28 -0.38,0.43 -0.08,0.13 -0.13,0.28 -0.15,0.42l-0.04 0.41 -2.98 0 0.04 -0.48c0.02,-0.39 0.1,-0.75 0.23,-1.1 0.13,-0.34 0.32,-0.67 0.55,-0.96 0.23,-0.3 0.5,-0.57 0.81,-0.8 0.31,-0.23 0.66,-0.44 1.05,-0.61 0.38,-0.17 0.81,-0.3 1.26,-0.39 0.44,-0.08 0.91,-0.12 1.41,-0.12 0.52,0 1.01,0.04 1.47,0.12 0.46,0.08 0.9,0.21 1.29,0.38 0.41,0.17 0.77,0.39 1.09,0.67 0.31,0.26 0.59,0.59 0.81,0.96 0.22,0.36 0.39,0.79 0.5,1.27 0.11,0.47 0.16,0.99 0.16,1.56 0,2.28 -0.01,4.56 0.01,6.84l0.03 0.71 0.14 1.21 -2.74 0c-0.05,-0.43 -0.1,-0.85 -0.13,-1.28 -0.28,0.28 -0.6,0.53 -0.97,0.76 -0.82,0.5 -1.8,0.75 -2.94,0.75zm-1.18 -1.01c0.36,0.07 0.75,0.11 1.18,0.11 0.98,0 1.8,-0.2 2.47,-0.61 0.34,-0.21 0.63,-0.45 0.87,-0.7 0.24,-0.25 0.43,-0.52 0.58,-0.81l0.83 -1.65c0.01,1.13 -0.03,2.4 0.09,3.54l0.93 0 -0.06 -1.01c-0.02,-2.28 -0.01,-4.57 -0.01,-6.85 0,-0.51 -0.05,-0.96 -0.14,-1.36 -0.09,-0.39 -0.22,-0.72 -0.39,-1.01 -0.17,-0.28 -0.38,-0.53 -0.63,-0.74 -0.24,-0.21 -0.52,-0.39 -0.85,-0.53 -0.32,-0.14 -0.69,-0.24 -1.09,-0.31 -0.4,-0.08 -0.84,-0.11 -1.32,-0.11 -0.45,0 -0.86,0.03 -1.25,0.11 -0.38,0.07 -0.74,0.18 -1.06,0.32 -0.32,0.14 -0.61,0.31 -0.87,0.5 -0.25,0.19 -0.46,0.41 -0.64,0.64 -0.18,0.23 -0.32,0.48 -0.42,0.73l-0.11 0.36 1.22 0c0.04,-0.14 0.1,-0.27 0.18,-0.39 0.14,-0.24 0.34,-0.46 0.58,-0.66 0.26,-0.21 0.58,-0.37 0.97,-0.47 0.37,-0.1 0.8,-0.14 1.28,-0.14 0.53,0 0.99,0.06 1.39,0.17 0.43,0.12 0.79,0.31 1.07,0.55 0.31,0.26 0.54,0.62 0.69,1.07 0.13,0.42 0.2,0.92 0.2,1.5l0 1.31 -4.54 0c-0.65,0 -1.22,0.06 -1.71,0.19 -0.47,0.12 -0.86,0.31 -1.18,0.55 -0.31,0.23 -0.54,0.53 -0.69,0.9 -0.16,0.39 -0.24,0.88 -0.24,1.45 0,0.33 0.04,0.65 0.11,0.95 0.08,0.29 0.19,0.57 0.33,0.83 0.15,0.26 0.33,0.5 0.54,0.7 0.21,0.2 0.46,0.38 0.74,0.53 0.28,0.15 0.6,0.26 0.95,0.34zm1.63 -1.78c0.3,0 0.59,-0.03 0.87,-0.09 0.27,-0.05 0.53,-0.13 0.77,-0.24 0.23,-0.09 0.44,-0.22 0.63,-0.37 0.19,-0.15 0.35,-0.32 0.49,-0.52 0.13,-0.18 0.23,-0.4 0.3,-0.63 0.06,-0.23 0.1,-0.5 0.1,-0.79l0 -0.41 -3.28 0c-0.35,0 -0.66,0.04 -0.93,0.11 -0.25,0.06 -0.47,0.15 -0.64,0.28 -0.16,0.11 -0.27,0.24 -0.35,0.41 -0.08,0.18 -0.12,0.41 -0.12,0.68 0,0.45 0.16,0.82 0.48,1.11 0.16,0.15 0.37,0.26 0.63,0.33 0.29,0.08 0.64,0.13 1.05,0.13zm1.04 0.8c-0.33,0.06 -0.68,0.1 -1.04,0.1 -0.49,0 -0.92,-0.06 -1.3,-0.17 -0.39,-0.11 -0.72,-0.29 -0.98,-0.52 -0.52,-0.47 -0.78,-1.06 -0.78,-1.78 0,-0.4 0.07,-0.75 0.21,-1.05 0.14,-0.32 0.36,-0.58 0.65,-0.78 0.27,-0.19 0.58,-0.33 0.93,-0.42 0.34,-0.08 0.73,-0.13 1.15,-0.13l4.18 0 0 1.31c0,0.37 -0.05,0.72 -0.14,1.04 -0.1,0.33 -0.24,0.63 -0.43,0.9 -0.18,0.26 -0.41,0.5 -0.66,0.7 -0.24,0.2 -0.52,0.36 -0.84,0.5 -0.3,0.13 -0.61,0.23 -0.95,0.3zm15.78 1.99c-0.56,0 -1.11,-0.06 -1.64,-0.18 -0.52,-0.13 -1.02,-0.32 -1.48,-0.57 -0.47,-0.26 -0.89,-0.58 -1.27,-0.97 -0.36,-0.38 -0.69,-0.83 -0.95,-1.34 -0.27,-0.51 -0.47,-1.09 -0.61,-1.73 -0.13,-0.63 -0.19,-1.32 -0.19,-2.07l0 -0.47c0,-0.72 0.07,-1.38 0.21,-1.98 0.14,-0.61 0.36,-1.17 0.66,-1.67 0.28,-0.49 0.62,-0.92 1,-1.3 0.38,-0.37 0.82,-0.68 1.29,-0.93 0.47,-0.25 0.95,-0.43 1.45,-0.56 0.5,-0.12 1.01,-0.18 1.53,-0.18 0.53,0 1.02,0.05 1.48,0.14 0.47,0.1 0.9,0.24 1.29,0.44 0.4,0.19 0.76,0.42 1.07,0.68 0.32,0.27 0.61,0.57 0.85,0.91 0.24,0.33 0.44,0.68 0.6,1.05 0.16,0.37 0.29,0.76 0.37,1.17l0.12 0.54 -2.99 0 -0.12 -0.27c-0.11,-0.27 -0.25,-0.52 -0.4,-0.75 -0.16,-0.23 -0.34,-0.44 -0.54,-0.62 -0.17,-0.15 -0.4,-0.28 -0.67,-0.36 -0.29,-0.09 -0.65,-0.13 -1.06,-0.13 -0.27,0 -0.53,0.03 -0.78,0.09 -0.25,0.06 -0.5,0.16 -0.73,0.29 -0.23,0.12 -0.44,0.28 -0.63,0.48 -0.19,0.2 -0.36,0.44 -0.51,0.72 -0.15,0.27 -0.27,0.59 -0.34,0.96 -0.08,0.37 -0.12,0.8 -0.12,1.28l0 0.47c0,0.51 0.04,0.98 0.12,1.38 0.08,0.39 0.19,0.74 0.34,1.03 0.16,0.3 0.33,0.56 0.52,0.76 0.18,0.21 0.39,0.37 0.62,0.5 0.24,0.13 0.48,0.23 0.73,0.3 0.25,0.06 0.51,0.1 0.78,0.1 0.35,0 0.66,-0.05 0.95,-0.13 0.28,-0.08 0.53,-0.2 0.75,-0.36 0.23,-0.16 0.42,-0.36 0.58,-0.57 0.16,-0.23 0.29,-0.48 0.38,-0.77l0.1 -0.31 3.03 0 -0.13 0.55c-0.1,0.44 -0.24,0.85 -0.42,1.24 -0.19,0.39 -0.42,0.75 -0.68,1.09 -0.27,0.33 -0.57,0.62 -0.9,0.88 -0.32,0.25 -0.68,0.47 -1.07,0.64 -0.38,0.18 -0.79,0.31 -1.23,0.4 -0.44,0.09 -0.89,0.13 -1.36,0.13zm-1.43 -1.06c0.45,0.11 0.93,0.16 1.43,0.16 0.42,0 0.81,-0.03 1.18,-0.11 0.36,-0.07 0.71,-0.18 1.04,-0.33 0.31,-0.15 0.61,-0.33 0.89,-0.54 0.27,-0.21 0.52,-0.46 0.75,-0.73 0.22,-0.28 0.41,-0.58 0.56,-0.91l0.21 -0.51 -1.23 0c-0.11,0.25 -0.24,0.49 -0.4,0.7 -0.21,0.3 -0.48,0.56 -0.78,0.78 -0.31,0.22 -0.65,0.39 -1.02,0.49 -0.37,0.11 -0.77,0.17 -1.2,0.17 -0.34,0 -0.68,-0.05 -1.01,-0.13 -0.32,-0.09 -0.64,-0.22 -0.94,-0.39 -0.31,-0.17 -0.59,-0.4 -0.85,-0.67 -0.24,-0.28 -0.46,-0.6 -0.65,-0.96 -0.19,-0.37 -0.33,-0.79 -0.42,-1.27 -0.09,-0.46 -0.14,-0.98 -0.14,-1.55l0 -0.47c0,-0.53 0.05,-1.02 0.14,-1.46 0.09,-0.46 0.24,-0.86 0.43,-1.21 0.19,-0.35 0.41,-0.65 0.65,-0.91 0.25,-0.26 0.54,-0.48 0.84,-0.65 0.31,-0.16 0.62,-0.29 0.95,-0.37 0.32,-0.08 0.66,-0.12 1,-0.12 0.5,0 0.94,0.06 1.32,0.17 0.4,0.13 0.74,0.31 1.02,0.56 0.25,0.23 0.47,0.49 0.67,0.77 0.13,0.2 0.26,0.41 0.37,0.63l1.26 0 -0.17 -0.45c-0.14,-0.31 -0.31,-0.61 -0.51,-0.89 -0.2,-0.27 -0.43,-0.52 -0.69,-0.74 -0.26,-0.21 -0.56,-0.4 -0.89,-0.56 -0.32,-0.17 -0.68,-0.29 -1.08,-0.37 -0.39,-0.08 -0.82,-0.12 -1.3,-0.12 -0.45,0 -0.9,0.05 -1.32,0.16 -0.43,0.1 -0.84,0.26 -1.24,0.47 -0.4,0.21 -0.76,0.47 -1.08,0.79 -0.32,0.31 -0.61,0.68 -0.86,1.11 -0.24,0.41 -0.43,0.89 -0.55,1.41 -0.13,0.54 -0.19,1.13 -0.19,1.78l0 0.47c0,0.7 0.06,1.33 0.17,1.89 0.12,0.56 0.29,1.05 0.52,1.49 0.23,0.43 0.5,0.82 0.81,1.14 0.31,0.32 0.66,0.59 1.05,0.8 0.39,0.21 0.82,0.38 1.26,0.48zm14.5 0.38l0 -10.28 -4.29 0 0 -2.76 11.58 0 0 2.76 -4.3 0 0 10.73 -2.99 0 0 -0.45zm0.9 -10.73l0 10.28 1.19 0 0 -10.73 4.3 0 0 -0.96 -9.78 0 0 0.96 4.29 0 0 0.45zm15.88 11.41c-1.13,0 -2.19,-0.24 -3.18,-0.73 -0.5,-0.25 -0.95,-0.57 -1.36,-0.95 -0.4,-0.38 -0.76,-0.83 -1.06,-1.34 -0.3,-0.52 -0.53,-1.1 -0.68,-1.74 -0.15,-0.63 -0.22,-1.34 -0.22,-2.1l0 -0.47c0,-0.73 0.07,-1.4 0.21,-2.01 0.14,-0.62 0.36,-1.18 0.66,-1.67 0.29,-0.49 0.63,-0.93 1.01,-1.29 0.39,-0.37 0.82,-0.68 1.3,-0.93 0.48,-0.24 0.98,-0.42 1.49,-0.54 0.51,-0.12 1.04,-0.18 1.59,-0.18 1.98,0 3.52,0.55 4.62,1.65 0.55,0.55 0.97,1.22 1.24,2 0.27,0.76 0.41,1.64 0.41,2.61l0 1.78 -9.53 0c0.02,0.28 0.06,0.53 0.12,0.77 0.09,0.33 0.22,0.63 0.39,0.88 0.18,0.26 0.38,0.48 0.6,0.66 0.22,0.19 0.46,0.34 0.73,0.45 0.28,0.12 0.56,0.21 0.83,0.27 0.28,0.06 0.55,0.09 0.83,0.09 0.44,0 0.83,-0.04 1.17,-0.11 0.31,-0.07 0.58,-0.17 0.79,-0.3 0.22,-0.14 0.41,-0.3 0.56,-0.47 0.15,-0.18 0.27,-0.39 0.36,-0.62l0.12 -0.29 2.9 0 -0.12 0.55c-0.14,0.65 -0.38,1.24 -0.73,1.75 -0.34,0.5 -0.79,0.93 -1.33,1.27 -0.53,0.34 -1.12,0.6 -1.74,0.76 -0.61,0.17 -1.28,0.25 -1.98,0.25zm-2.78 -1.53c0.86,0.42 1.79,0.63 2.78,0.63 0.62,0 1.21,-0.07 1.75,-0.21 0.54,-0.15 1.03,-0.37 1.49,-0.65 0.44,-0.28 0.8,-0.62 1.07,-1.03 0.18,-0.26 0.33,-0.56 0.44,-0.89l-1.16 0c-0.11,0.22 -0.24,0.41 -0.39,0.59 -0.22,0.25 -0.47,0.47 -0.77,0.65 -0.3,0.19 -0.66,0.33 -1.07,0.42 -0.4,0.08 -0.85,0.13 -1.36,0.13 -0.34,0 -0.67,-0.04 -1.01,-0.11 -0.34,-0.07 -0.68,-0.18 -1.01,-0.32 -0.34,-0.15 -0.66,-0.35 -0.94,-0.59 -0.29,-0.23 -0.54,-0.52 -0.77,-0.84 -0.23,-0.34 -0.4,-0.73 -0.52,-1.17 -0.11,-0.43 -0.16,-0.91 -0.16,-1.44l0 -0.45 9.54 0 0 -0.88c0,-0.87 -0.12,-1.64 -0.35,-2.31 -0.24,-0.65 -0.58,-1.21 -1.04,-1.67 -0.92,-0.92 -2.25,-1.38 -3.98,-1.38 -0.48,0 -0.94,0.05 -1.38,0.16 -0.45,0.1 -0.88,0.26 -1.29,0.46 -0.4,0.21 -0.76,0.46 -1.09,0.78 -0.33,0.31 -0.61,0.67 -0.86,1.09 -0.24,0.41 -0.43,0.89 -0.55,1.42 -0.13,0.54 -0.19,1.15 -0.19,1.81l0 0.47c0,0.7 0.06,1.33 0.19,1.9 0.13,0.55 0.33,1.05 0.58,1.48 0.26,0.44 0.56,0.82 0.91,1.15 0.33,0.31 0.71,0.58 1.14,0.8zm2.66 -9.62c-0.29,0 -0.58,0.02 -0.86,0.08 -0.28,0.06 -0.56,0.14 -0.82,0.25 -0.25,0.1 -0.48,0.24 -0.69,0.41 -0.21,0.16 -0.39,0.36 -0.55,0.58 -0.16,0.22 -0.28,0.48 -0.35,0.76 -0.05,0.17 -0.08,0.36 -0.1,0.56l6.62 0c-0.02,-0.22 -0.05,-0.43 -0.1,-0.62 -0.08,-0.29 -0.19,-0.55 -0.33,-0.76 -0.14,-0.22 -0.31,-0.42 -0.5,-0.58 -0.19,-0.15 -0.41,-0.28 -0.64,-0.38 -0.24,-0.1 -0.51,-0.18 -0.78,-0.23 -0.28,-0.05 -0.58,-0.07 -0.9,-0.07zm-1.04 -0.8c0.34,-0.07 0.69,-0.1 1.04,-0.1 0.36,0 0.72,0.03 1.06,0.09 0.33,0.06 0.66,0.16 0.96,0.29 0.33,0.13 0.62,0.3 0.87,0.52 0.25,0.21 0.48,0.46 0.68,0.76 0.2,0.3 0.35,0.65 0.45,1.04 0.1,0.38 0.15,0.81 0.16,1.28l0 0.46 -8.47 0 0 -0.45c0,-0.45 0.05,-0.87 0.15,-1.25 0.11,-0.39 0.27,-0.73 0.48,-1.04 0.22,-0.29 0.46,-0.55 0.73,-0.77 0.27,-0.21 0.58,-0.39 0.9,-0.53 0.33,-0.14 0.66,-0.24 0.99,-0.3zm11.83 16.02l0 -17.79 2.85 0 0 1.4c0.33,-0.35 0.7,-0.65 1.12,-0.89 0.42,-0.25 0.87,-0.44 1.36,-0.56 0.48,-0.12 0.99,-0.18 1.54,-0.18 0.84,0 1.61,0.14 2.3,0.42 0.7,0.29 1.31,0.71 1.82,1.28 0.52,0.57 0.91,1.27 1.17,2.1 0.25,0.82 0.38,1.76 0.38,2.82l0 0.47c0,0.74 -0.06,1.42 -0.17,2.04 -0.12,0.63 -0.29,1.2 -0.53,1.71 -0.23,0.51 -0.52,0.97 -0.85,1.35 -0.33,0.39 -0.72,0.72 -1.15,0.99 -0.43,0.26 -0.9,0.45 -1.4,0.58 -0.49,0.13 -1.02,0.19 -1.57,0.19 -0.58,0 -1.11,-0.06 -1.6,-0.19 -0.49,-0.13 -0.94,-0.33 -1.34,-0.59 -0.35,-0.23 -0.66,-0.49 -0.94,-0.77l0 6.07 -2.99 0 0 -0.45zm0.9 -16.89l0 16.44 1.19 0 0 -8.42 0.85 1.66c0.17,0.32 0.37,0.61 0.62,0.88 0.24,0.27 0.53,0.51 0.86,0.73 0.32,0.21 0.68,0.36 1.08,0.47 0.41,0.11 0.87,0.16 1.37,0.16 0.48,0 0.93,-0.05 1.35,-0.16 0.41,-0.11 0.8,-0.27 1.16,-0.48 0.34,-0.21 0.66,-0.48 0.93,-0.8 0.28,-0.32 0.52,-0.71 0.72,-1.14 0.2,-0.44 0.35,-0.94 0.46,-1.5 0.1,-0.56 0.15,-1.19 0.15,-1.88l0 -0.47c0,-0.98 -0.11,-1.83 -0.34,-2.55 -0.21,-0.71 -0.54,-1.3 -0.97,-1.76 -0.43,-0.47 -0.93,-0.83 -1.5,-1.06 -0.57,-0.23 -1.23,-0.35 -1.96,-0.35 -0.48,0 -0.92,0.05 -1.33,0.15 -0.4,0.1 -0.78,0.26 -1.12,0.46 -0.34,0.2 -0.65,0.45 -0.92,0.74 -0.27,0.29 -0.5,0.63 -0.7,1.01l-0.85 1.68 0 -3.81 -1.05 0zm5.49 10.07c0.89,0 1.64,-0.34 2.24,-1.01 0.3,-0.34 0.53,-0.76 0.68,-1.26 0.16,-0.52 0.24,-1.14 0.24,-1.84l0 -0.47c0,-0.65 -0.08,-1.21 -0.24,-1.69 -0.15,-0.47 -0.37,-0.88 -0.67,-1.2 -0.31,-0.33 -0.64,-0.58 -1.01,-0.74 -0.37,-0.16 -0.79,-0.24 -1.24,-0.24 -0.35,0 -0.67,0.03 -0.97,0.1 -0.3,0.07 -0.57,0.18 -0.82,0.32 -0.25,0.14 -0.48,0.3 -0.68,0.49 -0.2,0.19 -0.37,0.4 -0.5,0.63 -0.14,0.24 -0.25,0.49 -0.32,0.76 -0.07,0.27 -0.11,0.55 -0.11,0.86l0 1.9c0,0.34 0.04,0.67 0.11,0.96 0.07,0.29 0.18,0.57 0.32,0.82 0.14,0.25 0.31,0.48 0.51,0.67 0.19,0.2 0.42,0.37 0.67,0.51 0.26,0.14 0.53,0.25 0.82,0.32 0.3,0.07 0.62,0.11 0.97,0.11zm2.91 -0.41c-0.78,0.87 -1.75,1.31 -2.91,1.31 -0.41,0 -0.81,-0.05 -1.18,-0.13 -0.38,-0.1 -0.73,-0.23 -1.05,-0.41 -0.32,-0.18 -0.61,-0.41 -0.87,-0.66 -0.25,-0.26 -0.47,-0.55 -0.65,-0.87 -0.18,-0.32 -0.32,-0.67 -0.41,-1.05 -0.09,-0.37 -0.14,-0.77 -0.14,-1.17l0 -1.9c0,-0.38 0.05,-0.74 0.14,-1.09 0.09,-0.34 0.23,-0.67 0.42,-0.98 0.18,-0.31 0.4,-0.59 0.65,-0.83 0.25,-0.24 0.55,-0.45 0.87,-0.63 0.32,-0.18 0.67,-0.31 1.05,-0.4 0.36,-0.09 0.76,-0.13 1.17,-0.13 0.57,0 1.11,0.11 1.6,0.32 0.48,0.21 0.92,0.53 1.31,0.95 0.39,0.43 0.68,0.94 0.87,1.53 0.18,0.58 0.28,1.24 0.28,1.97l0 0.47c0,0.79 -0.1,1.49 -0.28,2.1 -0.19,0.63 -0.48,1.16 -0.87,1.6zm13.2 3.16c-0.57,0 -1.11,-0.06 -1.64,-0.18 -0.53,-0.13 -1.02,-0.32 -1.48,-0.57 -0.47,-0.26 -0.9,-0.58 -1.27,-0.97 -0.37,-0.38 -0.69,-0.83 -0.96,-1.34 -0.26,-0.51 -0.47,-1.09 -0.6,-1.73 -0.13,-0.63 -0.2,-1.32 -0.2,-2.07l0 -0.47c0,-0.72 0.08,-1.38 0.22,-1.98 0.14,-0.61 0.36,-1.17 0.65,-1.67 0.29,-0.49 0.63,-0.92 1.01,-1.3 0.38,-0.37 0.81,-0.68 1.29,-0.93 0.46,-0.25 0.95,-0.43 1.44,-0.56 0.5,-0.12 1.02,-0.18 1.54,-0.18 0.52,0 1.02,0.05 1.48,0.14 0.47,0.1 0.9,0.24 1.29,0.44 0.4,0.19 0.75,0.42 1.07,0.68 0.32,0.27 0.6,0.57 0.85,0.91 0.24,0.33 0.44,0.68 0.6,1.05 0.16,0.37 0.29,0.76 0.37,1.17l0.11 0.54 -2.98 0 -0.12 -0.27c-0.11,-0.27 -0.25,-0.52 -0.4,-0.75 -0.16,-0.23 -0.34,-0.43 -0.54,-0.61 -0.18,-0.16 -0.4,-0.29 -0.67,-0.37 -0.29,-0.09 -0.65,-0.13 -1.06,-0.13 -0.27,0 -0.53,0.03 -0.78,0.09 -0.26,0.07 -0.5,0.16 -0.74,0.29 -0.23,0.12 -0.44,0.28 -0.62,0.48 -0.19,0.2 -0.37,0.44 -0.52,0.72 -0.14,0.27 -0.26,0.59 -0.33,0.96 -0.08,0.37 -0.12,0.8 -0.12,1.28l0 0.47c0,0.51 0.04,0.98 0.12,1.38 0.08,0.39 0.19,0.74 0.34,1.03 0.15,0.3 0.33,0.56 0.51,0.76 0.19,0.21 0.4,0.37 0.63,0.5 0.23,0.13 0.48,0.23 0.73,0.3 0.24,0.06 0.51,0.1 0.78,0.1 0.35,0 0.66,-0.05 0.94,-0.13 0.28,-0.08 0.54,-0.2 0.76,-0.36 0.22,-0.16 0.42,-0.35 0.58,-0.58 0.16,-0.22 0.29,-0.48 0.38,-0.76l0.1 -0.31 3.03 0 -0.13 0.55c-0.1,0.44 -0.24,0.85 -0.43,1.24 -0.18,0.39 -0.41,0.75 -0.68,1.09 -0.26,0.33 -0.56,0.63 -0.89,0.88 -0.33,0.25 -0.69,0.47 -1.07,0.64 -0.39,0.18 -0.8,0.31 -1.24,0.4 -0.43,0.09 -0.88,0.13 -1.35,0.13zm-1.43 -1.06c0.44,0.11 0.92,0.16 1.43,0.16 0.42,0 0.81,-0.03 1.17,-0.11 0.37,-0.07 0.72,-0.18 1.05,-0.33 0.32,-0.15 0.62,-0.33 0.89,-0.54 0.27,-0.21 0.52,-0.46 0.74,-0.73 0.22,-0.28 0.41,-0.58 0.57,-0.91l0.21 -0.51 -1.23 0c-0.11,0.25 -0.24,0.49 -0.4,0.7 -0.21,0.3 -0.48,0.56 -0.78,0.78 -0.31,0.22 -0.65,0.39 -1.02,0.49 -0.37,0.11 -0.77,0.17 -1.2,0.17 -0.34,0 -0.68,-0.05 -1.01,-0.13 -0.32,-0.09 -0.64,-0.22 -0.94,-0.39 -0.31,-0.17 -0.6,-0.4 -0.85,-0.67 -0.24,-0.28 -0.46,-0.6 -0.65,-0.96 -0.19,-0.37 -0.33,-0.79 -0.42,-1.27 -0.09,-0.46 -0.14,-0.98 -0.14,-1.55l0 -0.47c0,-0.53 0.05,-1.02 0.14,-1.46 0.09,-0.46 0.24,-0.86 0.43,-1.21 0.19,-0.35 0.4,-0.65 0.65,-0.91 0.25,-0.26 0.53,-0.48 0.84,-0.65 0.31,-0.16 0.62,-0.29 0.94,-0.37 0.33,-0.08 0.67,-0.12 1.01,-0.12 0.49,0 0.93,0.06 1.32,0.17 0.4,0.12 0.74,0.31 1.02,0.56 0.25,0.23 0.47,0.49 0.66,0.77 0.14,0.2 0.26,0.41 0.37,0.63l1.27 0 -0.17 -0.45c-0.14,-0.31 -0.31,-0.61 -0.51,-0.89 -0.2,-0.27 -0.43,-0.52 -0.69,-0.74 -0.27,-0.21 -0.57,-0.4 -0.89,-0.56 -0.32,-0.17 -0.69,-0.29 -1.08,-0.37 -0.39,-0.08 -0.83,-0.12 -1.3,-0.12 -0.45,0 -0.9,0.05 -1.32,0.16 -0.43,0.1 -0.84,0.26 -1.25,0.47 -0.39,0.21 -0.75,0.47 -1.07,0.79 -0.32,0.31 -0.61,0.68 -0.86,1.11 -0.25,0.41 -0.43,0.89 -0.56,1.41 -0.12,0.54 -0.19,1.13 -0.19,1.78l0 0.47c0,0.7 0.06,1.33 0.18,1.89 0.11,0.56 0.29,1.05 0.52,1.49 0.22,0.44 0.5,0.82 0.81,1.14 0.31,0.32 0.66,0.59 1.05,0.8 0.4,0.21 0.82,0.38 1.26,0.48zm11.63 0.38l0 -13.04 2.99 0 0 5.27 1.01 0 4.7 -5.27 3.68 0 -5.87 6.49 6.08 7 -3.85 0 -4.74 -5.51 -1.01 0 0 5.51 -2.99 0 0 -0.45zm0.9 -12.14l0 11.69 1.19 0 0 -5.51 2.32 0 4.74 5.51 1.47 0 -5.31 -6.11 5.05 -5.58 -1.25 0 -4.71 5.27 -2.31 0 0 -5.27 -1.19 0zm19.13 12.82c-0.49,0 -0.95,-0.04 -1.37,-0.13 -0.43,-0.1 -0.83,-0.24 -1.18,-0.43 -0.36,-0.19 -0.67,-0.42 -0.94,-0.67 -0.28,-0.27 -0.51,-0.57 -0.7,-0.9 -0.19,-0.34 -0.33,-0.69 -0.42,-1.07 -0.09,-0.37 -0.14,-0.76 -0.14,-1.16 0,-1.4 0.43,-2.42 1.28,-3.07 0.42,-0.31 0.92,-0.54 1.5,-0.7 0.57,-0.15 1.22,-0.22 1.95,-0.22l3.63 0 0 -0.41c0,-0.49 -0.06,-0.9 -0.16,-1.22 -0.1,-0.29 -0.23,-0.51 -0.41,-0.66 -0.19,-0.17 -0.44,-0.29 -0.73,-0.38 -0.33,-0.09 -0.71,-0.13 -1.15,-0.13 -0.41,0 -0.77,0.03 -1.06,0.11 -0.26,0.07 -0.47,0.16 -0.62,0.29 -0.17,0.14 -0.3,0.28 -0.39,0.43 -0.08,0.14 -0.13,0.28 -0.14,0.43l-0.05 0.4 -2.96 0 0.03 -0.48c0.02,-0.38 0.1,-0.75 0.23,-1.1 0.13,-0.34 0.32,-0.66 0.55,-0.96 0.23,-0.3 0.5,-0.57 0.81,-0.8 0.31,-0.24 0.66,-0.44 1.04,-0.61 0.39,-0.17 0.81,-0.3 1.26,-0.39 0.45,-0.08 0.92,-0.12 1.42,-0.12 0.52,0 1.02,0.04 1.47,0.12 0.46,0.08 0.89,0.21 1.29,0.38 0.41,0.17 0.77,0.39 1.09,0.67 0.31,0.26 0.58,0.58 0.81,0.96 0.22,0.37 0.39,0.79 0.5,1.27 0.1,0.47 0.16,0.99 0.16,1.56 0,2.28 -0.02,4.56 0.01,6.84l0.03 0.71 0.14 1.21 -2.73 0c-0.06,-0.43 -0.11,-0.85 -0.15,-1.27 -0.27,0.27 -0.59,0.52 -0.96,0.75 -0.41,0.25 -0.87,0.44 -1.36,0.57 -0.49,0.12 -1.02,0.18 -1.58,0.18zm-1.18 -1.01c0.35,0.07 0.75,0.11 1.18,0.11 0.49,0 0.95,-0.05 1.36,-0.15 0.41,-0.11 0.78,-0.26 1.11,-0.47 0.34,-0.2 0.63,-0.44 0.87,-0.69 0.24,-0.25 0.43,-0.52 0.58,-0.81l0.82 -1.65c0.02,1.13 -0.02,2.41 0.1,3.54l0.92 0 -0.05 -1.01c-0.03,-2.28 -0.01,-4.57 -0.01,-6.85 0,-0.51 -0.05,-0.96 -0.14,-1.36 -0.09,-0.39 -0.22,-0.73 -0.39,-1.01 -0.17,-0.28 -0.38,-0.53 -0.63,-0.74 -0.24,-0.22 -0.53,-0.39 -0.85,-0.53 -0.33,-0.13 -0.69,-0.24 -1.09,-0.31 -0.41,-0.08 -0.85,-0.11 -1.32,-0.11 -0.45,0 -0.87,0.03 -1.25,0.11 -0.39,0.07 -0.74,0.18 -1.06,0.32 -0.33,0.15 -0.62,0.31 -0.87,0.5 -0.25,0.19 -0.46,0.4 -0.64,0.64 -0.18,0.22 -0.32,0.47 -0.42,0.73l-0.11 0.36 1.21 0c0.05,-0.14 0.11,-0.27 0.18,-0.39 0.15,-0.24 0.34,-0.46 0.58,-0.66 0.26,-0.21 0.59,-0.37 0.98,-0.47 0.37,-0.1 0.8,-0.14 1.28,-0.14 0.52,0 0.99,0.05 1.39,0.17 0.42,0.12 0.78,0.3 1.08,0.55 0.3,0.26 0.53,0.62 0.67,1.07 0.14,0.42 0.21,0.92 0.21,1.5l0 1.31 -4.53 0c-0.66,0 -1.23,0.06 -1.72,0.19 -0.47,0.12 -0.86,0.31 -1.18,0.55 -0.62,0.46 -0.93,1.25 -0.93,2.35 0,0.33 0.04,0.65 0.11,0.95 0.07,0.29 0.19,0.57 0.33,0.84 0.15,0.26 0.33,0.49 0.54,0.69 0.21,0.2 0.46,0.38 0.74,0.53 0.28,0.15 0.6,0.26 0.95,0.34zm1.63 -1.78c0.3,0 0.59,-0.03 0.86,-0.09 0.28,-0.05 0.54,-0.13 0.78,-0.23 0.23,-0.11 0.44,-0.23 0.63,-0.38 0.18,-0.15 0.34,-0.32 0.48,-0.52 0.14,-0.19 0.24,-0.4 0.3,-0.63 0.07,-0.23 0.11,-0.5 0.11,-0.79l0 -0.41 -3.28 0c-0.35,0 -0.66,0.04 -0.93,0.11 -0.25,0.06 -0.47,0.15 -0.64,0.28 -0.16,0.1 -0.27,0.24 -0.35,0.41 -0.08,0.18 -0.12,0.41 -0.12,0.68 0,0.23 0.04,0.44 0.12,0.62 0.08,0.18 0.2,0.35 0.36,0.49 0.15,0.15 0.37,0.26 0.63,0.33 0.29,0.08 0.64,0.13 1.05,0.13zm1.03 0.8c-0.32,0.06 -0.67,0.1 -1.03,0.1 -0.49,0 -0.93,-0.06 -1.3,-0.17 -0.39,-0.11 -0.73,-0.29 -0.98,-0.52 -0.26,-0.24 -0.46,-0.5 -0.59,-0.8 -0.12,-0.31 -0.19,-0.63 -0.19,-0.98 0,-0.4 0.07,-0.75 0.2,-1.05 0.15,-0.32 0.37,-0.58 0.65,-0.78 0.27,-0.19 0.59,-0.33 0.94,-0.42 0.34,-0.08 0.73,-0.13 1.15,-0.13l4.18 0 0 1.31c0,0.37 -0.05,0.72 -0.14,1.04 -0.1,0.33 -0.24,0.63 -0.43,0.9 -0.19,0.26 -0.41,0.5 -0.66,0.7 -0.25,0.2 -0.53,0.37 -0.84,0.5 -0.31,0.13 -0.63,0.23 -0.96,0.3zm9.6 1.05l3.07 -4.47c-0.31,-0.1 -0.59,-0.23 -0.85,-0.37 -0.43,-0.25 -0.78,-0.56 -1.04,-0.92 -0.26,-0.35 -0.46,-0.76 -0.59,-1.21 -0.13,-0.44 -0.19,-0.93 -0.19,-1.46 0,-0.45 0.04,-0.86 0.13,-1.24 0.1,-0.4 0.24,-0.76 0.43,-1.09 0.19,-0.33 0.44,-0.63 0.73,-0.88 0.29,-0.25 0.63,-0.46 1.02,-0.63 0.38,-0.17 0.82,-0.3 1.3,-0.38 0.48,-0.08 1.01,-0.13 1.59,-0.13l5.91 0 0 13.49 -2.99 0 0 -4.8 -2.51 0 -3.07 4.8 -3.42 0 0.48 -0.71zm4.17 -4.48l-2.94 4.29 1.23 0 3.06 -4.8 3.9 0 0 4.8 1.19 0 0 -11.69 -5.01 0c-0.53,0 -1.01,0.04 -1.44,0.11 -0.41,0.07 -0.77,0.18 -1.09,0.32 -0.3,0.13 -0.57,0.3 -0.79,0.49 -0.22,0.19 -0.4,0.41 -0.54,0.65 -0.15,0.25 -0.26,0.53 -0.33,0.84 -0.07,0.32 -0.11,0.66 -0.11,1.04 0,0.45 0.05,0.85 0.15,1.21 0.1,0.35 0.25,0.66 0.45,0.93 0.19,0.26 0.45,0.49 0.77,0.67 0.34,0.19 0.75,0.34 1.22,0.45l0.65 0.15 -0.37 0.54zm-0.78 -3.95c0,0.27 0.04,0.51 0.11,0.72 0.07,0.18 0.18,0.34 0.32,0.46 0.14,0.13 0.34,0.23 0.6,0.29 0.28,0.08 0.64,0.12 1.06,0.12l3.04 0 0 -3.18 -3.04 0c-0.42,0 -0.78,0.04 -1.06,0.11 -0.26,0.07 -0.46,0.17 -0.6,0.3 -0.14,0.12 -0.25,0.27 -0.32,0.46 -0.07,0.2 -0.11,0.44 -0.11,0.72zm-0.73 1.03c-0.11,-0.3 -0.17,-0.65 -0.17,-1.03 0,-0.39 0.06,-0.74 0.17,-1.04 0.13,-0.32 0.32,-0.59 0.56,-0.81 0.25,-0.23 0.57,-0.39 0.97,-0.5 0.36,-0.09 0.79,-0.14 1.29,-0.14l3.94 0 0 4.98 -3.94 0c-0.5,0 -0.93,-0.05 -1.29,-0.15 -0.4,-0.1 -0.72,-0.27 -0.97,-0.49 -0.25,-0.22 -0.44,-0.5 -0.56,-0.82zm-406.47 53.76c-2.47,0 -4.77,-0.58 -6.89,-1.76 -2.12,-1.17 -3.84,-2.99 -5.15,-5.48 -1.31,-2.49 -1.97,-5.69 -1.97,-9.62l0 -0.94c0,-2.85 0.38,-5.31 1.14,-7.37 0.76,-2.05 1.79,-3.75 3.09,-5.07 1.29,-1.33 2.79,-2.33 4.48,-2.97 1.7,-0.65 3.46,-0.98 5.3,-0.98 1.8,0 3.46,0.24 4.96,0.72 1.5,0.47 2.82,1.15 3.97,2.04 1.13,0.89 2.06,1.97 2.77,3.28 0.71,1.29 1.17,2.76 1.36,4.41l-4.75 0c-0.45,-2.15 -1.38,-3.77 -2.8,-4.84 -1.43,-1.08 -3.26,-1.62 -5.51,-1.62 -1.56,0 -3.04,0.4 -4.46,1.19 -1.43,0.79 -2.59,2.1 -3.47,3.92 -0.89,1.82 -1.33,4.24 -1.33,7.29l0 0.94c0,2.41 0.28,4.44 0.83,6.08 0.55,1.65 1.29,2.97 2.21,3.96 0.92,1.01 1.92,1.72 3.02,2.17 1.08,0.44 2.15,0.66 3.2,0.66 2.47,0 4.4,-0.6 5.79,-1.8 1.39,-1.2 2.23,-2.76 2.52,-4.66l4.75 0c-0.26,1.84 -0.76,3.42 -1.52,4.75 -0.76,1.33 -1.72,2.42 -2.88,3.25 -1.15,0.84 -2.47,1.46 -3.94,1.86 -1.47,0.39 -3.04,0.59 -4.72,0.59zm26.97 -0.47l0 -29.35 -11.54 0 0 -3.89 27.54 0 0 3.89 -11.54 0 0 29.35 -4.46 0zm28.11 0.47c-0.35,0 -0.69,-0.01 -1.02,-0.02 -0.33,-0.02 -0.63,-0.04 -0.88,-0.07l0 -3.99c0.25,0.03 0.55,0.05 0.88,0.07 0.33,0.01 0.67,0.02 1.02,0.02 0.92,0 1.65,-0.11 2.21,-0.33 0.55,-0.22 1.03,-0.62 1.44,-1.19 0.42,-0.57 0.84,-1.39 1.29,-2.47l-13.72 -25.73 4.84 0 11.11 21.13 9.4 -21.13 4.56 0 -12.11 26.73c-0.54,1.2 -1.09,2.25 -1.66,3.14 -0.57,0.88 -1.2,1.61 -1.9,2.18 -0.7,0.57 -1.49,0.99 -2.38,1.26 -0.88,0.27 -1.91,0.4 -3.08,0.4zm20.18 5.7l0 -10.07 3.56 0c0.6,-1.2 1.1,-2.68 1.5,-4.44 0.39,-1.75 0.71,-3.67 0.94,-5.74 0.24,-2.08 0.41,-4.18 0.5,-6.32 0.1,-2.13 0.15,-4.2 0.15,-6.2l0 -6.64 21.6 0 0 29.34 4.04 0 0 10.07 -4.27 0 0 -6.17 -23.75 0 0 6.17 -4.27 0zm8.31 -10.07l15.48 0 0 -25.45 -12.77 0 0 3.71c0,4.81 -0.22,8.97 -0.65,12.48 -0.42,3.52 -1.11,6.6 -2.06,9.26zm30.15 3.9l0 -33.24 4.46 0 0 26.11 17.67 -26.11 4.46 0 0 33.24 -4.46 0 0 -26.12 -17.67 26.12 -4.46 0zm33.47 0l9.12 -13.96c-2.56,-0.7 -4.48,-1.88 -5.77,-3.54 -1.28,-1.66 -1.92,-3.59 -1.92,-5.77 0,-1.9 0.47,-3.6 1.42,-5.11 0.95,-1.5 2.37,-2.69 4.23,-3.56 1.87,-0.87 4.18,-1.3 6.93,-1.3l11.64 0 0 33.24 -4.47 0 0 -13.39 -7.69 0 -8.45 13.39 -5.04 0zm5.89 -23.27c0,1.81 0.67,3.27 2,4.39 1.33,1.13 3.53,1.69 6.6,1.69l6.69 0 0 -12.16 -6.69 0c-3.07,0 -5.27,0.56 -6.6,1.69 -1.33,1.12 -2,2.59 -2,4.39zm41.12 23.27l0 -33.24 4.66 0 11.11 21.13 11.11 -21.13 4.46 0 0 33.24 -4.46 0 0 -25.17 -9.54 18.04 -3.33 0 -9.54 -18.04 0 25.17 -4.47 0zm40.84 0l0 -33.24 21.37 0 0 3.89 -16.91 0 0 10.3 15.48 0 0 3.9 -15.48 0 0 11.25 16.91 0 0 3.9 -21.37 0zm37.18 0l0 -29.35 -11.54 0 0 -3.89 27.54 0 0 3.89 -11.54 0 0 29.35 -4.46 0zm14.1 0l12.73 -33.24 4.46 0 12.73 33.24 -4.85 0 -3.18 -8.27 -14.05 0 -3.18 8.27 -4.66 0zm9.31 -12.16l11.11 0 -5.55 -15.38 -5.56 15.38zm25.12 12.63c-0.23,0 -0.45,-0.02 -0.69,-0.05 -0.24,-0.03 -0.48,-0.06 -0.74,-0.09l0 -4.37c0.1,0.03 0.33,0.05 0.72,0.05 0.75,0 1.41,-0.16 1.96,-0.48 0.56,-0.31 1.03,-0.9 1.43,-1.75 0.4,-0.86 0.7,-2.08 0.93,-3.68 0.22,-1.61 0.39,-3.69 0.49,-6.27 0.12,-2.58 0.17,-5.74 0.17,-9.47l0 -7.6 22.32 0 0 33.24 -4.47 0 0 -29.35 -13.39 0 0 4.65c0,4.21 -0.11,7.79 -0.33,10.74 -0.22,2.94 -0.56,5.36 -1.02,7.26 -0.46,1.9 -1.04,3.36 -1.74,4.39 -0.69,1.03 -1.5,1.75 -2.44,2.16 -0.93,0.42 -2,0.62 -3.2,0.62zm33.95 0c-0.22,0 -0.46,-0.02 -0.69,-0.05 -0.24,-0.03 -0.49,-0.06 -0.74,-0.09l0 -4.37c0.1,0.03 0.34,0.05 0.72,0.05 0.75,0 1.41,-0.16 1.97,-0.48 0.55,-0.31 1.02,-0.9 1.42,-1.75 0.4,-0.86 0.71,-2.08 0.93,-3.68 0.21,-1.61 0.39,-3.69 0.5,-6.27 0.11,-2.58 0.16,-5.74 0.16,-9.47l0 -7.6 22.32 0 0 33.24 -4.47 0 0 -29.35 -13.39 0 0 4.65c0,4.21 -0.11,7.79 -0.33,10.74 -0.22,2.94 -0.56,5.36 -1.02,7.26 -0.46,1.9 -1.04,3.36 -1.73,4.39 -0.7,1.03 -1.52,1.75 -2.45,2.16 -0.93,0.42 -2,0.62 -3.2,0.62zm32.29 -0.47l12.72 -33.24 4.46 0 12.73 33.24 -4.84 0 -3.18 -8.27 -14.06 0 -3.18 8.27 -4.65 0zm9.3 -12.16l11.12 0 -5.56 -15.38 -5.56 15.38zm-470.97 12.62c4.04,-7.22 7.95,-13.88 11.71,-19.96l-16.65 0.61c-4.03,6.44 -8.23,13.58 -12.6,21.38l-3.63 -2.03c10.54,-18.83 20.16,-33.87 28.72,-44.68 8.76,-11.04 16.54,-17.77 23.25,-19.72l1.16 3.98c-5.36,1.57 -11.79,6.98 -19.18,15.9l16.31 -0.62c8.61,-10.77 16.27,-17.33 22.88,-19.26l1.16 3.98c-5.83,1.71 -12.92,7.96 -21.15,18.33 -8.42,10.62 -17.9,25.47 -28.35,44.12l-3.63 -2.03zm14.38 -24.21c3.97,-6.24 7.78,-11.8 11.4,-16.65l-16.41 0.62c-3.68,4.78 -7.55,10.33 -11.61,16.63l16.62 -0.6z"/>
 </g>
</svg>
