<?xml version="1.0" encoding="UTF-8"?>
<!DOCTYPE svg PUBLIC "-//W3C//DTD SVG 1.1//EN" "http://www.w3.org/Graphics/SVG/1.1/DTD/svg11.dtd">
<!-- Creator: CorelDRAW 2021.5 -->
<svg xmlns="http://www.w3.org/2000/svg" xml:space="preserve" width="260px" height="40px" version="1.1" style="shape-rendering:geometricPrecision; text-rendering:geometricPrecision; image-rendering:optimizeQuality; fill-rule:evenodd; clip-rule:evenodd"
viewBox="0 0 260 40"
 xmlns:xlink="http://www.w3.org/1999/xlink"
 xmlns:xodm="http://www.corel.com/coreldraw/odm/2003">
 <defs>
  <style type="text/css">
   <![CDATA[
    .str0 {stroke:#FEFEFE;stroke-width:2.08;stroke-miterlimit:22.9256}
    .fil1 {fill:none}
    .fil0 {fill:#FEFEFE;fill-rule:nonzero}
   ]]>
  </style>
 </defs>
 <g id="Layer_x0020_1">
  <metadata id="CorelCorpID_0Corel-Layer"/>
  <g id="_55614624">
   <path class="fil0" d="M42.61 12.25l0 -6.3 5.23 0 0 6.3 -1.05 0 0 -5.37 -3.13 0 0 5.37 -1.05 0zm8.42 2.37l0 -8.67 0.97 0 0 1.19c0.22,-0.42 0.52,-0.74 0.9,-0.97 0.38,-0.22 0.83,-0.33 1.34,-0.33 0.79,0 1.42,0.25 1.9,0.77 0.47,0.52 0.71,1.29 0.71,2.31l0 0.24c0,0.71 -0.11,1.31 -0.33,1.78 -0.21,0.48 -0.52,0.83 -0.91,1.07 -0.39,0.24 -0.85,0.36 -1.37,0.36 -0.54,0 -0.99,-0.12 -1.35,-0.36 -0.36,-0.24 -0.63,-0.53 -0.81,-0.89l0 3.5 -1.05 0zm2.97 -3.18c0.51,0 0.94,-0.19 1.29,-0.58 0.34,-0.39 0.52,-0.96 0.52,-1.7l0 -0.24c0,-0.69 -0.18,-1.22 -0.52,-1.59 -0.35,-0.38 -0.78,-0.57 -1.29,-0.57 -0.38,0 -0.72,0.08 -1,0.24 -0.29,0.16 -0.52,0.37 -0.68,0.65 -0.16,0.27 -0.24,0.58 -0.24,0.92l0 0.95c0,0.38 0.08,0.71 0.24,1 0.16,0.29 0.39,0.52 0.68,0.68 0.28,0.16 0.62,0.24 1,0.24zm8.24 0.93c-0.53,0 -1.03,-0.12 -1.49,-0.35 -0.47,-0.24 -0.84,-0.59 -1.12,-1.07 -0.28,-0.47 -0.42,-1.07 -0.42,-1.79l0 -0.24c0,-0.68 0.14,-1.25 0.42,-1.71 0.28,-0.46 0.65,-0.8 1.12,-1.03 0.46,-0.23 0.96,-0.34 1.49,-0.34 0.54,0 1.03,0.11 1.49,0.34 0.46,0.23 0.83,0.57 1.11,1.03 0.29,0.46 0.43,1.03 0.43,1.71l0 0.24c0,0.72 -0.14,1.32 -0.43,1.79 -0.28,0.48 -0.65,0.83 -1.11,1.07 -0.46,0.23 -0.95,0.35 -1.49,0.35zm0 -0.95c0.32,0 0.63,-0.08 0.93,-0.22 0.3,-0.15 0.54,-0.39 0.74,-0.72 0.19,-0.33 0.29,-0.77 0.29,-1.32l0 -0.24c0,-0.5 -0.1,-0.91 -0.29,-1.23 -0.2,-0.31 -0.44,-0.54 -0.74,-0.68 -0.3,-0.15 -0.61,-0.22 -0.93,-0.22 -0.32,0 -0.63,0.07 -0.93,0.22 -0.3,0.14 -0.55,0.37 -0.74,0.68 -0.2,0.32 -0.29,0.73 -0.29,1.23l0 0.24c0,0.55 0.09,0.99 0.29,1.32 0.19,0.33 0.44,0.57 0.74,0.72 0.3,0.14 0.61,0.22 0.93,0.22zm5.8 0.83l0 -6.3 1.05 0 0 4.76 3.25 -4.76 1.04 0 0 6.3 -1.04 0 0 -4.75 -3.25 4.75 -1.05 0zm10.67 0.12c-0.52,0 -0.97,-0.08 -1.35,-0.23 -0.38,-0.15 -0.68,-0.37 -0.89,-0.65 -0.22,-0.29 -0.34,-0.63 -0.37,-1.02l1.05 0c0.03,0.2 0.12,0.38 0.26,0.52 0.13,0.14 0.31,0.25 0.53,0.32 0.22,0.07 0.48,0.11 0.77,0.11 0.55,0 0.95,-0.1 1.2,-0.28 0.25,-0.19 0.37,-0.41 0.37,-0.67 0,-0.31 -0.1,-0.55 -0.31,-0.73 -0.2,-0.18 -0.56,-0.27 -1.07,-0.27l-1.08 0 0 -0.85 1.01 0c0.44,0 0.75,-0.09 0.93,-0.26 0.19,-0.16 0.28,-0.39 0.28,-0.7 0,-0.23 -0.11,-0.44 -0.33,-0.61 -0.22,-0.18 -0.55,-0.26 -1,-0.26 -0.48,0 -0.83,0.07 -1.05,0.23 -0.22,0.15 -0.35,0.37 -0.4,0.66l-1.04 0c0.03,-0.36 0.15,-0.68 0.35,-0.95 0.21,-0.28 0.5,-0.5 0.86,-0.66 0.36,-0.16 0.79,-0.23 1.28,-0.23 0.81,0 1.41,0.17 1.8,0.51 0.38,0.34 0.58,0.78 0.58,1.31 0,0.31 -0.08,0.57 -0.23,0.79 -0.15,0.23 -0.39,0.41 -0.72,0.53 0.44,0.12 0.75,0.31 0.92,0.57 0.18,0.26 0.27,0.57 0.27,0.92 0,0.34 -0.1,0.65 -0.3,0.94 -0.2,0.29 -0.49,0.52 -0.87,0.7 -0.39,0.17 -0.87,0.26 -1.45,0.26zm5.39 -0.12l0 -6.3 2.73 0c0.52,0 0.95,0.08 1.28,0.22 0.34,0.15 0.58,0.35 0.74,0.61 0.16,0.26 0.24,0.56 0.24,0.9 0,0.27 -0.09,0.54 -0.27,0.79 -0.18,0.25 -0.4,0.42 -0.68,0.51 0.39,0.1 0.68,0.28 0.88,0.54 0.2,0.27 0.31,0.58 0.31,0.94 0,0.54 -0.19,0.98 -0.55,1.3 -0.36,0.33 -0.93,0.49 -1.71,0.49l-2.97 0zm1.05 -0.93l1.92 0c0.44,0 0.76,-0.08 0.94,-0.24 0.18,-0.15 0.27,-0.38 0.27,-0.67 0,-0.3 -0.09,-0.53 -0.27,-0.7 -0.18,-0.16 -0.5,-0.24 -0.94,-0.24l-1.92 0 0 1.85zm0 -2.7l1.68 0c0.45,0 0.77,-0.08 0.95,-0.24 0.17,-0.16 0.26,-0.38 0.26,-0.66 0,-0.26 -0.09,-0.46 -0.26,-0.61 -0.18,-0.15 -0.5,-0.23 -0.95,-0.23l-1.68 0 0 1.74zm9.56 3.75c-0.53,0 -1.02,-0.12 -1.49,-0.35 -0.46,-0.24 -0.83,-0.59 -1.11,-1.07 -0.28,-0.47 -0.43,-1.07 -0.43,-1.79l0 -0.24c0,-0.68 0.15,-1.25 0.43,-1.71 0.28,-0.46 0.65,-0.8 1.11,-1.03 0.47,-0.23 0.96,-0.34 1.49,-0.34 0.54,0 1.04,0.11 1.5,0.34 0.46,0.23 0.83,0.57 1.11,1.03 0.28,0.46 0.42,1.03 0.42,1.71l0 0.24c0,0.72 -0.14,1.32 -0.42,1.79 -0.28,0.48 -0.65,0.83 -1.11,1.07 -0.46,0.23 -0.96,0.35 -1.5,0.35zm0 -0.95c0.33,0 0.64,-0.08 0.94,-0.22 0.29,-0.15 0.54,-0.39 0.73,-0.72 0.2,-0.33 0.29,-0.77 0.29,-1.32l0 -0.24c0,-0.5 -0.09,-0.91 -0.29,-1.23 -0.19,-0.31 -0.44,-0.54 -0.73,-0.68 -0.3,-0.15 -0.61,-0.22 -0.94,-0.22 -0.31,0 -0.62,0.07 -0.92,0.22 -0.3,0.14 -0.55,0.37 -0.75,0.68 -0.19,0.32 -0.29,0.73 -0.29,1.23l0 0.24c0,0.55 0.1,0.99 0.29,1.32 0.2,0.33 0.45,0.57 0.75,0.72 0.3,0.14 0.61,0.22 0.92,0.22zm4.98 2.31l0 -2.41 0.77 0c0.12,-0.16 0.22,-0.42 0.31,-0.8 0.08,-0.38 0.15,-0.82 0.2,-1.32 0.06,-0.51 0.08,-1.04 0.08,-1.58l0 -1.67 4.4 0 0 5.37 0.89 0 0 2.41 -1 0 0 -1.48 -4.66 0 0 1.48 -0.99 0zm1.84 -2.41l2.87 0 0 -4.44 -2.33 0 0 0.97c0,0.67 -0.04,1.31 -0.13,1.93 -0.1,0.63 -0.23,1.14 -0.41,1.54zm9.78 1.05c-0.54,0 -1.03,-0.12 -1.46,-0.35 -0.43,-0.24 -0.77,-0.59 -1.02,-1.07 -0.25,-0.47 -0.37,-1.07 -0.37,-1.79l0 -0.24c0,-0.68 0.13,-1.25 0.4,-1.71 0.27,-0.46 0.62,-0.8 1.06,-1.03 0.43,-0.23 0.9,-0.34 1.39,-0.34 0.5,0 0.93,0.08 1.29,0.26 0.36,0.18 0.65,0.42 0.87,0.73 0.22,0.3 0.37,0.64 0.45,1.02l-1.07 0c-0.12,-0.3 -0.3,-0.55 -0.53,-0.76 -0.22,-0.2 -0.56,-0.3 -1.01,-0.3 -0.31,0 -0.6,0.07 -0.87,0.22 -0.27,0.14 -0.49,0.37 -0.66,0.68 -0.17,0.32 -0.25,0.73 -0.25,1.23l0 0.24c0,0.54 0.08,0.98 0.25,1.31 0.17,0.33 0.39,0.57 0.66,0.72 0.27,0.15 0.56,0.23 0.87,0.23 0.39,0 0.71,-0.1 0.98,-0.29 0.26,-0.19 0.45,-0.45 0.56,-0.78l1.07 0c-0.09,0.41 -0.26,0.77 -0.51,1.07 -0.25,0.31 -0.55,0.54 -0.9,0.7 -0.36,0.17 -0.76,0.25 -1.2,0.25zm6.76 -0.12l0 -5.37 -2.15 0 0 -0.93 5.35 0 0 0.93 -2.15 0 0 5.37 -1.05 0zm5.67 0l0 -6.3 2.74 0c0.52,0 0.95,0.08 1.28,0.22 0.33,0.15 0.58,0.35 0.74,0.61 0.15,0.26 0.23,0.56 0.23,0.9 0,0.27 -0.09,0.54 -0.26,0.79 -0.18,0.25 -0.41,0.42 -0.69,0.51 0.39,0.1 0.69,0.28 0.89,0.54 0.2,0.27 0.3,0.58 0.3,0.94 0,0.54 -0.18,0.98 -0.55,1.3 -0.36,0.33 -0.93,0.49 -1.71,0.49l-2.97 0zm1.05 -0.93l1.92 0c0.45,0 0.76,-0.08 0.94,-0.24 0.19,-0.15 0.28,-0.38 0.28,-0.67 0,-0.3 -0.09,-0.53 -0.28,-0.7 -0.18,-0.16 -0.49,-0.24 -0.94,-0.24l-1.92 0 0 1.85zm0 -2.7l1.69 0c0.45,0 0.76,-0.08 0.94,-0.24 0.18,-0.16 0.27,-0.38 0.27,-0.66 0,-0.26 -0.09,-0.46 -0.27,-0.61 -0.18,-0.15 -0.49,-0.23 -0.94,-0.23l-1.69 0 0 1.74zm9.57 3.75c-0.53,0 -1.03,-0.12 -1.49,-0.35 -0.47,-0.23 -0.84,-0.58 -1.12,-1.05 -0.28,-0.48 -0.42,-1.08 -0.42,-1.81l0 -0.24c0,-0.69 0.13,-1.27 0.4,-1.72 0.27,-0.46 0.63,-0.8 1.07,-1.03 0.45,-0.22 0.93,-0.33 1.44,-0.33 0.93,0 1.64,0.25 2.15,0.76 0.51,0.5 0.76,1.22 0.76,2.14l0 0.67 -4.77 0c0,0.49 0.1,0.88 0.3,1.18 0.2,0.29 0.45,0.5 0.76,0.63 0.3,0.13 0.61,0.2 0.92,0.2 0.47,0 0.84,-0.08 1.1,-0.24 0.25,-0.16 0.44,-0.38 0.55,-0.65l1.02 0c-0.13,0.6 -0.44,1.06 -0.93,1.37 -0.5,0.31 -1.08,0.47 -1.74,0.47zm-0.06 -5.58c-0.33,0 -0.64,0.06 -0.93,0.18 -0.29,0.12 -0.53,0.31 -0.72,0.58 -0.18,0.26 -0.27,0.59 -0.27,1l3.78 0c0,-0.43 -0.09,-0.78 -0.26,-1.03 -0.17,-0.26 -0.4,-0.45 -0.67,-0.56 -0.28,-0.12 -0.59,-0.17 -0.93,-0.17zm5.62 5.46l0 -6.3 1.05 0 0 2.63 3.25 0 0 -2.63 1.05 0 0 6.3 -1.05 0 0 -2.74 -3.25 0 0 2.74 -1.05 0zm8.54 0l0 -6.3 1.04 0 0 2.63 3.26 0 0 -2.63 1.04 0 0 6.3 -1.04 0 0 -2.74 -3.26 0 0 2.74 -1.04 0zm10.33 0.12c-0.46,0 -0.85,-0.09 -1.17,-0.26 -0.32,-0.17 -0.57,-0.4 -0.73,-0.7 -0.17,-0.3 -0.25,-0.63 -0.25,-1 0,-0.63 0.18,-1.08 0.55,-1.36 0.37,-0.27 0.9,-0.41 1.59,-0.41l2.04 0 0 -0.43c0,-0.54 -0.12,-0.91 -0.37,-1.12 -0.24,-0.2 -0.6,-0.3 -1.08,-0.3 -0.45,0 -0.78,0.08 -0.99,0.25 -0.2,0.17 -0.32,0.36 -0.34,0.58l-1.05 0c0.03,-0.34 0.14,-0.65 0.35,-0.91 0.2,-0.27 0.48,-0.48 0.84,-0.64 0.36,-0.16 0.77,-0.23 1.25,-0.23 0.5,0 0.93,0.07 1.29,0.23 0.37,0.15 0.65,0.39 0.85,0.72 0.19,0.33 0.29,0.76 0.29,1.3l0 2.56c0,0.33 0.01,0.62 0.01,0.87 0,0.25 0.02,0.49 0.05,0.73l-0.91 0c-0.03,-0.18 -0.04,-0.36 -0.05,-0.52 -0.01,-0.16 -0.01,-0.34 -0.01,-0.55 -0.17,0.33 -0.44,0.61 -0.81,0.84 -0.37,0.23 -0.82,0.35 -1.35,0.35zm0.22 -0.95c0.33,0 0.64,-0.06 0.91,-0.18 0.27,-0.12 0.49,-0.29 0.65,-0.52 0.17,-0.23 0.25,-0.51 0.25,-0.85l0 -0.42 -1.87 0c-0.38,0 -0.69,0.07 -0.91,0.23 -0.22,0.15 -0.33,0.4 -0.33,0.73 0,0.29 0.1,0.53 0.31,0.72 0.21,0.19 0.54,0.29 0.99,0.29zm5.51 0.83l1.71 -2.5c-0.52,-0.11 -0.9,-0.33 -1.13,-0.64 -0.23,-0.32 -0.34,-0.72 -0.34,-1.21 0,-0.41 0.08,-0.76 0.25,-1.05 0.16,-0.29 0.42,-0.51 0.77,-0.66 0.35,-0.16 0.8,-0.24 1.35,-0.24l2.73 0 0 6.3 -1.04 0 0 -2.4 -1.61 0 -1.53 2.4 -1.16 0zm1.28 -4.35c0,0.33 0.1,0.59 0.29,0.76 0.2,0.18 0.52,0.26 0.98,0.26l1.75 0 0 -2.04 -1.75 0c-0.46,0 -0.78,0.09 -0.98,0.26 -0.19,0.18 -0.29,0.43 -0.29,0.76zm13.49 4.35l0 -6.3 1.12 0 2.24 3.92 2.24 -3.92 1.05 0 0 6.3 -1.05 0 0 -4.57 -1.86 3.2 -0.83 0 -1.87 -3.2 0 4.57 -1.04 0zm11.63 0.12c-0.46,0 -0.85,-0.09 -1.17,-0.26 -0.32,-0.17 -0.56,-0.4 -0.73,-0.7 -0.16,-0.3 -0.25,-0.63 -0.25,-1 0,-0.63 0.19,-1.08 0.56,-1.36 0.36,-0.27 0.89,-0.41 1.58,-0.41l2.04 0 0 -0.43c0,-0.54 -0.12,-0.91 -0.36,-1.12 -0.24,-0.2 -0.6,-0.3 -1.08,-0.3 -0.46,0 -0.78,0.08 -0.99,0.25 -0.21,0.17 -0.32,0.36 -0.34,0.58l-1.05 0c0.02,-0.34 0.14,-0.65 0.34,-0.91 0.21,-0.27 0.49,-0.48 0.85,-0.64 0.35,-0.16 0.77,-0.23 1.24,-0.23 0.5,0 0.93,0.07 1.3,0.23 0.36,0.15 0.64,0.39 0.84,0.72 0.2,0.33 0.3,0.76 0.3,1.3l0 2.56c0,0.33 0,0.62 0.01,0.87 0,0.25 0.02,0.49 0.05,0.73l-0.92 0c-0.02,-0.18 -0.04,-0.36 -0.04,-0.52 -0.01,-0.16 -0.01,-0.34 -0.01,-0.55 -0.17,0.33 -0.44,0.61 -0.81,0.84 -0.37,0.23 -0.83,0.35 -1.36,0.35zm0.23 -0.95c0.33,0 0.63,-0.06 0.91,-0.18 0.27,-0.12 0.49,-0.29 0.65,-0.52 0.16,-0.23 0.24,-0.51 0.24,-0.85l0 -0.42 -1.86 0c-0.39,0 -0.69,0.07 -0.91,0.23 -0.23,0.15 -0.34,0.4 -0.34,0.73 0,0.29 0.11,0.53 0.32,0.72 0.21,0.19 0.54,0.29 0.99,0.29zm8.41 0.95c-0.53,0 -1.02,-0.12 -1.45,-0.35 -0.43,-0.24 -0.77,-0.59 -1.02,-1.07 -0.25,-0.47 -0.38,-1.07 -0.38,-1.79l0 -0.24c0,-0.68 0.14,-1.25 0.41,-1.71 0.27,-0.46 0.62,-0.8 1.05,-1.03 0.44,-0.23 0.9,-0.34 1.39,-0.34 0.5,0 0.93,0.08 1.29,0.26 0.36,0.18 0.65,0.42 0.88,0.73 0.22,0.3 0.37,0.64 0.45,1.02l-1.07 0c-0.13,-0.3 -0.3,-0.55 -0.53,-0.76 -0.22,-0.2 -0.56,-0.3 -1.02,-0.3 -0.3,0 -0.59,0.07 -0.86,0.22 -0.27,0.14 -0.49,0.37 -0.66,0.68 -0.17,0.32 -0.26,0.73 -0.26,1.23l0 0.24c0,0.54 0.09,0.98 0.26,1.31 0.17,0.33 0.39,0.57 0.66,0.72 0.27,0.15 0.56,0.23 0.86,0.23 0.39,0 0.72,-0.1 0.98,-0.29 0.27,-0.19 0.46,-0.45 0.57,-0.78l1.07 0c-0.1,0.41 -0.27,0.77 -0.51,1.07 -0.25,0.31 -0.55,0.54 -0.91,0.7 -0.35,0.17 -0.75,0.25 -1.2,0.25zm6.77 -0.12l0 -5.37 -2.15 0 0 -0.93 5.35 0 0 0.93 -2.16 0 0 5.37 -1.04 0zm8.17 0.12c-0.53,0 -1.03,-0.12 -1.49,-0.35 -0.47,-0.23 -0.84,-0.58 -1.12,-1.05 -0.28,-0.48 -0.42,-1.08 -0.42,-1.81l0 -0.24c0,-0.69 0.13,-1.27 0.4,-1.72 0.27,-0.46 0.63,-0.8 1.07,-1.03 0.44,-0.22 0.92,-0.33 1.44,-0.33 0.92,0 1.64,0.25 2.15,0.76 0.5,0.5 0.76,1.22 0.76,2.14l0 0.67 -4.78 0c0,0.49 0.1,0.88 0.31,1.18 0.2,0.29 0.45,0.5 0.76,0.63 0.3,0.13 0.61,0.2 0.92,0.2 0.47,0 0.84,-0.08 1.1,-0.24 0.25,-0.16 0.44,-0.38 0.55,-0.65l1.02 0c-0.13,0.6 -0.44,1.06 -0.93,1.37 -0.5,0.31 -1.08,0.47 -1.74,0.47zm-0.06 -5.58c-0.33,0 -0.64,0.06 -0.93,0.18 -0.29,0.12 -0.53,0.31 -0.72,0.58 -0.18,0.26 -0.28,0.59 -0.28,1l3.79 0c-0.01,-0.43 -0.1,-0.78 -0.27,-1.03 -0.17,-0.26 -0.39,-0.45 -0.67,-0.56 -0.27,-0.12 -0.58,-0.17 -0.92,-0.17zm5.62 7.83l0 -8.67 0.98 0 0 1.19c0.21,-0.42 0.51,-0.74 0.89,-0.97 0.39,-0.22 0.83,-0.33 1.34,-0.33 0.79,0 1.42,0.25 1.9,0.77 0.47,0.52 0.71,1.29 0.71,2.31l0 0.24c0,0.71 -0.11,1.31 -0.32,1.78 -0.22,0.48 -0.53,0.83 -0.92,1.07 -0.39,0.24 -0.85,0.36 -1.37,0.36 -0.54,0 -0.99,-0.12 -1.35,-0.36 -0.36,-0.24 -0.63,-0.53 -0.81,-0.89l0 3.5 -1.05 0zm2.97 -3.18c0.52,0 0.94,-0.19 1.29,-0.58 0.34,-0.39 0.52,-0.96 0.52,-1.7l0 -0.24c0,-0.69 -0.18,-1.22 -0.52,-1.59 -0.35,-0.38 -0.77,-0.57 -1.29,-0.57 -0.38,0 -0.71,0.08 -1,0.24 -0.29,0.16 -0.52,0.37 -0.68,0.65 -0.16,0.27 -0.24,0.58 -0.24,0.92l0 0.95c0,0.38 0.08,0.71 0.24,1 0.16,0.29 0.39,0.52 0.68,0.68 0.29,0.16 0.62,0.24 1,0.24zm8.06 0.93c-0.54,0 -1.02,-0.12 -1.45,-0.35 -0.44,-0.24 -0.78,-0.59 -1.03,-1.07 -0.24,-0.47 -0.37,-1.07 -0.37,-1.79l0 -0.24c0,-0.68 0.13,-1.25 0.4,-1.71 0.27,-0.46 0.63,-0.8 1.06,-1.03 0.44,-0.23 0.9,-0.34 1.39,-0.34 0.5,0 0.93,0.08 1.29,0.26 0.36,0.18 0.65,0.42 0.87,0.73 0.22,0.3 0.37,0.64 0.45,1.02l-1.07 0c-0.12,-0.3 -0.3,-0.55 -0.52,-0.76 -0.23,-0.2 -0.57,-0.3 -1.02,-0.3 -0.31,0 -0.6,0.07 -0.87,0.22 -0.27,0.14 -0.48,0.37 -0.65,0.68 -0.18,0.32 -0.26,0.73 -0.26,1.23l0 0.24c0,0.54 0.08,0.98 0.26,1.31 0.17,0.33 0.38,0.57 0.65,0.72 0.27,0.15 0.56,0.23 0.87,0.23 0.39,0 0.72,-0.1 0.98,-0.29 0.27,-0.19 0.45,-0.45 0.56,-0.78l1.07 0c-0.09,0.41 -0.26,0.77 -0.51,1.07 -0.24,0.31 -0.54,0.54 -0.9,0.7 -0.36,0.17 -0.76,0.25 -1.2,0.25zm5.33 -0.12l0 -6.3 1.04 0 0 2.64 0.83 0 2.36 -2.64 1.23 0 -2.73 3.02 2.85 3.28 -1.33 0 -2.38 -2.76 -0.83 0 0 2.76 -1.04 0zm9.79 0.12c-0.46,0 -0.85,-0.09 -1.17,-0.26 -0.32,-0.17 -0.56,-0.4 -0.73,-0.7 -0.16,-0.3 -0.25,-0.63 -0.25,-1 0,-0.63 0.19,-1.08 0.55,-1.36 0.37,-0.27 0.9,-0.41 1.59,-0.41l2.04 0 0 -0.43c0,-0.54 -0.12,-0.91 -0.36,-1.12 -0.24,-0.2 -0.6,-0.3 -1.09,-0.3 -0.45,0 -0.78,0.08 -0.98,0.25 -0.21,0.17 -0.32,0.36 -0.35,0.58l-1.04 0c0.02,-0.34 0.14,-0.65 0.34,-0.91 0.21,-0.27 0.49,-0.48 0.85,-0.64 0.35,-0.16 0.77,-0.23 1.24,-0.23 0.5,0 0.93,0.07 1.3,0.23 0.36,0.15 0.64,0.39 0.84,0.72 0.2,0.33 0.3,0.76 0.3,1.3l0 2.56c0,0.33 0,0.62 0,0.87 0.01,0.25 0.03,0.49 0.06,0.73l-0.92 0c-0.02,-0.18 -0.04,-0.36 -0.04,-0.52 -0.01,-0.16 -0.02,-0.34 -0.02,-0.55 -0.16,0.33 -0.43,0.61 -0.8,0.84 -0.38,0.23 -0.83,0.35 -1.36,0.35zm0.23 -0.95c0.33,0 0.63,-0.06 0.91,-0.18 0.27,-0.12 0.49,-0.29 0.65,-0.52 0.16,-0.23 0.24,-0.51 0.24,-0.85l0 -0.42 -1.86 0c-0.39,0 -0.69,0.07 -0.92,0.23 -0.22,0.15 -0.33,0.4 -0.33,0.73 0,0.29 0.11,0.53 0.32,0.72 0.21,0.19 0.54,0.29 0.99,0.29zm5.5 0.83l1.72 -2.5c-0.53,-0.11 -0.9,-0.33 -1.13,-0.64 -0.23,-0.32 -0.35,-0.72 -0.35,-1.21 0,-0.41 0.08,-0.76 0.25,-1.05 0.17,-0.29 0.43,-0.51 0.77,-0.66 0.35,-0.16 0.8,-0.24 1.36,-0.24l2.73 0 0 6.3 -1.05 0 0 -2.4 -1.6 0 -1.53 2.4 -1.17 0zm1.29 -4.35c0,0.33 0.09,0.59 0.29,0.76 0.19,0.18 0.52,0.26 0.98,0.26l1.74 0 0 -2.04 -1.74 0c-0.46,0 -0.79,0.09 -0.98,0.26 -0.2,0.18 -0.29,0.43 -0.29,0.76z"/>
   <path class="fil0" d="M49.74 35.31c-1.23,0 -2.38,-0.29 -3.44,-0.87 -1.06,-0.59 -1.92,-1.51 -2.58,-2.75 -0.66,-1.24 -0.99,-2.84 -0.99,-4.81l0 -0.47c0,-1.43 0.19,-2.66 0.57,-3.69 0.38,-1.03 0.9,-1.87 1.55,-2.54 0.65,-0.66 1.4,-1.16 2.24,-1.48 0.85,-0.33 1.73,-0.49 2.65,-0.49 0.9,0 1.73,0.12 2.48,0.36 0.76,0.23 1.42,0.57 1.99,1.02 0.57,0.44 1.03,0.99 1.39,1.64 0.35,0.65 0.58,1.38 0.67,2.21l-2.37 0c-0.22,-1.08 -0.69,-1.89 -1.4,-2.43 -0.72,-0.54 -1.64,-0.8 -2.76,-0.8 -0.77,0 -1.52,0.19 -2.23,0.59 -0.71,0.4 -1.29,1.05 -1.74,1.96 -0.44,0.91 -0.66,2.13 -0.66,3.65l0 0.47c0,1.2 0.14,2.22 0.41,3.04 0.28,0.82 0.65,1.49 1.11,1.99 0.46,0.49 0.96,0.85 1.51,1.08 0.54,0.22 1.08,0.33 1.6,0.33 1.24,0 2.2,-0.3 2.9,-0.9 0.7,-0.61 1.12,-1.38 1.26,-2.33l2.37 0c-0.12,0.92 -0.38,1.71 -0.76,2.37 -0.38,0.67 -0.86,1.21 -1.43,1.63 -0.58,0.42 -1.24,0.73 -1.98,0.93 -0.73,0.19 -1.52,0.29 -2.36,0.29zm13.49 -0.23l0 -14.68 -5.77 0 0 -1.95 13.78 0 0 1.95 -5.77 0 0 14.68 -2.24 0zm14.07 0.23c-0.18,0 -0.35,0 -0.51,-0.01 -0.17,-0.01 -0.32,-0.02 -0.44,-0.03l0 -2c0.12,0.02 0.27,0.03 0.44,0.04 0.16,0 0.33,0.01 0.51,0.01 0.45,0 0.82,-0.06 1.1,-0.17 0.28,-0.11 0.52,-0.31 0.72,-0.59 0.21,-0.29 0.43,-0.7 0.65,-1.24l-6.87 -12.87 2.42 0 5.56 10.57 4.71 -10.57 2.28 0 -6.06 13.37c-0.27,0.6 -0.55,1.13 -0.83,1.57 -0.29,0.44 -0.6,0.81 -0.95,1.09 -0.35,0.29 -0.75,0.5 -1.19,0.63 -0.44,0.14 -0.96,0.2 -1.54,0.2zm10.09 2.85l0 -5.03 1.78 0c0.3,-0.6 0.55,-1.34 0.75,-2.22 0.2,-0.88 0.36,-1.84 0.48,-2.88 0.12,-1.03 0.2,-2.09 0.25,-3.16 0.04,-1.06 0.07,-2.1 0.07,-3.1l0 -3.32 10.81 0 0 14.68 2.01 0 0 5.03 -2.13 0 0 -3.08 -11.88 0 0 3.08 -2.14 0zm4.16 -5.03l7.74 0 0 -12.73 -6.39 0 0 1.85c0,2.41 -0.1,4.49 -0.32,6.25 -0.21,1.75 -0.56,3.3 -1.03,4.63zm15.08 1.95l0 -16.63 2.24 0 0 13.06 8.83 -13.06 2.24 0 0 16.63 -2.24 0 0 -13.07 -8.83 13.07 -2.24 0zm16.75 0l4.56 -6.99c-1.28,-0.35 -2.24,-0.94 -2.89,-1.77 -0.64,-0.83 -0.96,-1.79 -0.96,-2.88 0,-0.95 0.24,-1.8 0.72,-2.56 0.47,-0.75 1.18,-1.34 2.11,-1.78 0.93,-0.43 2.09,-0.65 3.47,-0.65l5.82 0 0 16.63 -2.24 0 0 -6.7 -3.84 0 -4.23 6.7 -2.52 0zm2.95 -11.64c0,0.9 0.33,1.63 0.99,2.19 0.67,0.57 1.77,0.85 3.3,0.85l3.35 0 0 -6.08 -3.35 0c-1.53,0 -2.63,0.28 -3.3,0.84 -0.66,0.56 -0.99,1.29 -0.99,2.2zm20.57 11.64l0 -16.63 2.32 0 5.56 10.57 5.56 -10.57 2.24 0 0 16.63 -2.24 0 0 -12.59 -4.77 9.02 -1.67 0 -4.77 -9.02 0 12.59 -2.23 0zm20.43 0l0 -16.63 10.69 0 0 1.95 -8.46 0 0 5.15 7.74 0 0 1.95 -7.74 0 0 5.63 8.46 0 0 1.95 -10.69 0zm18.6 0l0 -14.68 -5.78 0 0 -1.95 13.78 0 0 1.95 -5.77 0 0 14.68 -2.23 0zm7.05 0l6.37 -16.63 2.23 0 6.37 16.63 -2.43 0 -1.59 -4.14 -7.03 0 -1.59 4.14 -2.33 0zm4.66 -6.08l5.55 0 -2.77 -7.7 -2.78 7.7zm12.56 6.31c-0.11,0 -0.22,0 -0.34,-0.02 -0.12,-0.02 -0.24,-0.03 -0.37,-0.05l0 -2.18c0.05,0.01 0.17,0.02 0.36,0.02 0.38,0 0.71,-0.08 0.98,-0.24 0.28,-0.16 0.52,-0.45 0.71,-0.88 0.2,-0.42 0.36,-1.04 0.47,-1.84 0.11,-0.8 0.19,-1.84 0.25,-3.13 0.05,-1.29 0.08,-2.87 0.08,-4.74l0 -3.8 11.16 0 0 16.63 -2.23 0 0 -14.68 -6.7 0 0 2.32c0,2.11 -0.05,3.9 -0.16,5.37 -0.11,1.48 -0.28,2.69 -0.51,3.64 -0.23,0.95 -0.52,1.68 -0.87,2.19 -0.35,0.52 -0.76,0.88 -1.22,1.08 -0.47,0.21 -1.01,0.31 -1.61,0.31zm16.99 0c-0.11,0 -0.23,0 -0.35,-0.02 -0.12,-0.02 -0.24,-0.03 -0.37,-0.05l0 -2.18c0.05,0.01 0.17,0.02 0.36,0.02 0.38,0 0.71,-0.08 0.99,-0.24 0.27,-0.16 0.51,-0.45 0.71,-0.88 0.2,-0.42 0.35,-1.04 0.46,-1.84 0.11,-0.8 0.2,-1.84 0.25,-3.13 0.06,-1.29 0.09,-2.87 0.09,-4.74l0 -3.8 11.16 0 0 16.63 -2.23 0 0 -14.68 -6.7 0 0 2.32c0,2.11 -0.06,3.9 -0.17,5.37 -0.11,1.48 -0.28,2.69 -0.51,3.64 -0.23,0.95 -0.52,1.68 -0.87,2.19 -0.34,0.52 -0.75,0.88 -1.22,1.08 -0.47,0.21 -1,0.31 -1.6,0.31zm16.15 -0.23l6.37 -16.63 2.23 0 6.37 16.63 -2.43 0 -1.59 -4.14 -7.03 0 -1.59 4.14 -2.33 0zm4.66 -6.08l5.55 0 -2.77 -7.7 -2.78 7.7z"/>
  </g>
  <path class="fil1 str0" d="M13.29 35.82c10.5,-18.76 19.11,-29.9 25.38,-31.73m-35.97 31.73c10.5,-18.76 19.1,-29.9 25.38,-31.73m-8.22 20.13l-10.88 0.4m18.15 -10.86l-10.52 0.4"/>
 </g>
</svg>
