<?xml version="1.0" standalone="no"?>
<!DOCTYPE svg PUBLIC "-//W3C//DTD SVG 20010904//EN"
 "http://www.w3.org/TR/2001/REC-SVG-20010904/DTD/svg10.dtd">
<svg version="1.0" xmlns="http://www.w3.org/2000/svg"
 width="700.000000pt" height="700.000000pt" viewBox="0 0 700.000000 700.000000"
 preserveAspectRatio="xMidYMid meet">
<metadata>
Created by potrace 1.14, written by Peter Selinger 2001-2017
</metadata>
<g transform="translate(0.000000,700.000000) scale(0.100000,-0.100000)"
fill="#000000" stroke="none">
<path d="M4735 6511 c-379 -144 -775 -430 -1225 -881 -160 -160 -264 -270
-355 -376 -33 -38 -71 -80 -85 -94 -14 -14 -41 -46 -60 -70 -19 -25 -37 -47
-40 -50 -11 -10 -158 -188 -231 -280 -176 -222 -444 -581 -640 -859 -182 -258
-536 -792 -734 -1106 -48 -77 -102 -162 -120 -190 -37 -58 -175 -281 -190
-307 -28 -49 -102 -169 -131 -215 -19 -28 -34 -54 -34 -57 0 -2 -26 -47 -59
-99 -32 -51 -76 -124 -97 -161 -21 -37 -46 -80 -55 -94 -9 -15 -49 -83 -89
-152 -65 -111 -101 -174 -169 -292 -98 -173 -122 -215 -130 -228 -6 -8 -54
-95 -109 -192 l-100 -177 112 -62 c61 -34 136 -77 167 -94 l55 -32 40 71 c76
136 101 181 122 216 12 19 25 42 29 50 4 8 19 35 33 61 15 25 39 66 54 93 97
173 561 962 631 1071 18 28 78 124 133 215 56 91 106 171 110 178 9 13 27 14
382 27 91 3 221 7 290 10 69 3 184 7 255 10 72 3 208 8 303 11 94 3 201 7 237
9 36 2 65 1 65 -2 0 -3 -51 -90 -114 -192 -62 -102 -150 -249 -196 -326 -45
-77 -98 -164 -116 -192 -19 -29 -34 -55 -34 -58 0 -3 -11 -23 -24 -44 -31 -48
-476 -821 -476 -825 0 -2 -25 -46 -55 -97 -48 -82 -69 -126 -48 -106 3 4 11 3
17 -2 17 -14 298 -171 307 -171 4 0 23 28 42 63 114 206 395 694 583 1012 45
77 104 176 130 220 95 160 434 712 549 890 17 28 56 88 86 135 158 247 552
836 592 882 9 12 17 24 17 28 0 3 8 15 18 26 9 11 22 27 27 36 43 71 536 731
565 758 3 3 21 25 40 50 36 46 280 341 289 350 3 3 24 25 45 50 131 150 201
224 371 395 192 192 242 239 350 331 254 217 517 387 718 465 45 17 94 37 109
43 l26 11 -32 110 c-19 61 -42 140 -52 178 -10 37 -24 67 -31 67 -27 0 -195
-66 -302 -119 -220 -109 -434 -254 -671 -455 -137 -116 -184 -160 -390 -366
-211 -211 -255 -258 -455 -491 -108 -125 -120 -139 -210 -252 -38 -47 -69 -78
-85 -81 -14 -3 -110 -8 -215 -12 -104 -3 -219 -8 -255 -9 -36 -2 -153 -6 -260
-10 -107 -3 -235 -8 -285 -10 -49 -2 -175 -7 -280 -10 l-189 -7 54 63 c240
282 309 356 510 559 187 188 243 240 390 362 99 82 287 220 384 281 102 64
331 172 387 184 16 3 31 9 34 12 2 4 -17 76 -42 161 -25 85 -48 165 -50 178
-7 30 -21 28 -138 -17z m-342 -2133 c-59 -75 -257 -352 -468 -653 -70 -100
-376 -561 -475 -715 -51 -80 -94 -146 -95 -148 -3 -3 -142 -10 -345 -17 -299
-10 -456 -15 -565 -20 -60 -2 -193 -7 -295 -10 -102 -4 -215 -8 -252 -10 -38
-1 -68 -1 -68 2 0 10 347 534 495 748 202 291 546 758 568 772 6 3 43 8 81 9
39 1 141 5 226 8 85 3 220 8 300 11 80 3 183 7 230 10 47 2 182 7 300 11 118
3 216 7 217 8 1 0 36 2 79 4 61 2 75 0 67 -10z"/>
</g>
</svg>
